<svg width="99.064" height="42.624" viewBox="0 0 99.064 42.624" xmlns="http://www.w3.org/2000/svg"><g id="svgGroup" stroke-linecap="round" fill-rule="evenodd" font-size="9pt" stroke="#000" stroke-width="0.25mm" fill="white" style="stroke:#fff;stroke-width:0mm;fill:white"><path d="M 76.714 30.85 L 78.314 30.45 Q 78.514 30.55 78.264 30.725 Q 78.014 30.9 77.964 31.1 L 76.864 32.4 Q 76.214 32.65 75.864 33.225 A 1.811 1.811 0 0 1 75.155 33.884 A 2.499 2.499 0 0 1 74.764 34.05 A 129.999 129.999 0 0 1 71.877 34.956 A 167.521 167.521 0 0 1 68.714 35.875 Q 65.414 36.8 61.964 37.5 Q 61.064 37.7 60.314 37.625 Q 59.564 37.55 58.864 37.45 L 57.664 37.35 A 1.85 1.85 0 0 1 57.238 37.266 A 1.306 1.306 0 0 1 56.714 36.95 A 0.899 0.899 0 0 1 56.947 36.344 A 1.156 1.156 0 0 1 56.964 36.325 Q 57.214 36.05 57.564 35.75 Q 57.814 35.5 57.964 35.175 Q 58.086 34.912 58.174 34.763 A 1.523 1.523 0 0 1 58.214 34.7 Q 58.464 34.1 58.789 33.575 A 2.809 2.809 0 0 1 59.319 32.954 A 3.616 3.616 0 0 1 59.714 32.65 A 35.028 35.028 0 0 0 61.051 31.911 Q 62.092 31.303 62.889 30.725 A 7.86 7.86 0 0 0 64.423 29.242 A 9.918 9.918 0 0 0 65.114 28.25 A 8.629 8.629 0 0 0 64.794 28.23 Q 64.283 28.206 63.589 28.225 Q 62.757 28.248 61.985 28.169 A 11.138 11.138 0 0 1 61.814 28.15 Q 61.514 28.1 61.314 27.95 A 1.927 1.927 0 0 0 60.93 27.727 A 2.186 2.186 0 0 0 60.864 27.7 A 3.15 3.15 0 0 1 60.607 27.573 Q 60.36 27.434 60.224 27.285 A 0.906 0.906 0 0 1 60.214 27.275 Q 60.035 27.073 60.016 26.611 A 2.756 2.756 0 0 1 60.014 26.5 Q 60.014 26.27 59.985 25.982 A 7.954 7.954 0 0 0 59.964 25.8 Q 59.931 25.533 60.009 25.243 A 2.019 2.019 0 0 1 60.114 24.95 Q 60.414 24.2 60.939 23.375 Q 61.464 22.55 62.039 21.775 A 28.443 28.443 0 0 1 62.902 20.669 A 25.041 25.041 0 0 1 63.189 20.325 A 15.69 15.69 0 0 1 63.595 19.866 Q 63.93 19.503 64.214 19.25 Q 63.833 19.25 63.223 19.318 A 18.165 18.165 0 0 0 63.164 19.325 Q 62.514 19.4 61.764 19.525 Q 61.014 19.65 60.214 19.725 A 18.329 18.329 0 0 1 59.452 19.781 A 13.34 13.34 0 0 1 58.764 19.8 A 1.116 1.116 0 0 1 58.567 19.784 Q 58.361 19.747 58.239 19.625 A 1.221 1.221 0 0 0 57.891 19.383 A 1.436 1.436 0 0 0 57.814 19.35 A 3.301 3.301 0 0 1 57.539 19.196 Q 57.408 19.115 57.304 19.029 A 1.613 1.613 0 0 1 57.189 18.925 Q 57.027 18.763 56.956 18.459 A 2.017 2.017 0 0 1 56.914 18.2 Q 56.877 17.861 56.953 17.323 A 8.396 8.396 0 0 1 57.014 16.95 Q 57.264 15.9 57.964 14.75 Q 58.664 13.6 59.489 12.575 A 56.434 56.434 0 0 1 60.501 11.352 A 47.211 47.211 0 0 1 61.089 10.675 Q 61.783 9.892 62.216 9.37 A 24.404 24.404 0 0 0 62.314 9.25 A 6.623 6.623 0 0 0 61.206 9.005 Q 60.526 8.912 59.739 8.925 A 16.5 16.5 0 0 0 58.333 9.006 A 12.484 12.484 0 0 0 57.064 9.2 Q 56.833 9.246 56.73 8.992 A 0.716 0.716 0 0 1 56.714 8.95 Q 56.614 8.65 56.514 8.4 Q 56.374 8.12 56.365 7.993 A 0.24 0.24 0 0 1 56.364 7.975 A 0.928 0.928 0 0 1 56.368 7.895 Q 56.375 7.816 56.394 7.706 A 4.425 4.425 0 0 1 56.414 7.6 A 3.037 3.037 0 0 1 56.455 7.394 Q 56.531 7.078 56.647 6.985 A 0.175 0.175 0 0 1 56.714 6.95 Q 57.514 6.65 58.489 6.5 Q 59.464 6.35 60.414 6.425 A 6.776 6.776 0 0 1 61.596 6.62 A 5.78 5.78 0 0 1 62.164 6.8 A 3.242 3.242 0 0 1 63.009 7.262 A 2.862 2.862 0 0 1 63.464 7.7 Q 63.643 7.924 63.742 8.127 A 1.556 1.556 0 0 1 63.764 8.175 Q 63.864 8.4 63.964 8.65 Q 64.064 8.95 64.239 9.225 Q 64.375 9.439 64.375 9.668 A 0.802 0.802 0 0 1 64.364 9.8 A 2.039 2.039 0 0 1 64.07 10.662 A 2.419 2.419 0 0 1 64.014 10.75 A 6.969 6.969 0 0 1 63.814 11.036 Q 63.715 11.169 63.623 11.277 A 2.949 2.949 0 0 1 63.464 11.45 A 294.509 294.509 0 0 1 63.277 11.664 Q 62.977 12.006 62.564 12.475 Q 62.014 13.1 61.414 13.8 A 72.371 72.371 0 0 0 60.333 15.091 A 66.411 66.411 0 0 0 60.264 15.175 Q 59.714 15.85 59.414 16.35 A 1065.354 1065.354 0 0 1 61.221 16.156 A 917.504 917.504 0 0 1 62.939 15.975 A 21.548 21.548 0 0 1 63.967 15.891 Q 64.886 15.84 65.675 15.884 A 11.644 11.644 0 0 1 65.914 15.9 A 10.764 10.764 0 0 0 66.425 15.961 A 9.525 9.525 0 0 0 66.589 15.975 A 2.26 2.26 0 0 1 66.893 16.018 A 1.69 1.69 0 0 1 67.164 16.1 Q 67.464 16.2 67.689 16.425 A 4.935 4.935 0 0 0 67.881 16.608 Q 67.979 16.695 68.072 16.768 A 2.894 2.894 0 0 0 68.114 16.8 L 68.489 17.1 Q 68.595 17.185 68.683 17.412 A 2.007 2.007 0 0 1 68.714 17.5 A 3.597 3.597 0 0 1 68.764 17.71 Q 68.86 18.183 68.748 18.412 A 0.382 0.382 0 0 1 68.689 18.5 A 9.704 9.704 0 0 1 68.566 18.634 Q 68.427 18.783 68.242 18.971 A 31.25 31.25 0 0 1 68.064 19.15 A 167.344 167.344 0 0 0 67.04 20.184 Q 66.341 20.895 65.539 21.725 A 24.34 24.34 0 0 0 64.421 22.96 Q 63.917 23.559 63.518 24.126 A 13.334 13.334 0 0 0 63.264 24.5 Q 64.064 24.55 64.989 24.675 Q 65.914 24.8 66.714 25.05 Q 67.014 25.15 67.264 25.35 A 4.718 4.718 0 0 0 67.635 25.619 A 4.104 4.104 0 0 0 67.764 25.7 Q 68.129 25.928 68.39 26.156 A 3.395 3.395 0 0 1 68.439 26.2 A 0.817 0.817 0 0 1 68.69 26.65 A 1.219 1.219 0 0 1 68.714 26.9 A 1.294 1.294 0 0 1 68.701 27.071 Q 68.656 27.399 68.464 28.05 Q 67.992 29.167 67.113 30.451 A 21.244 21.244 0 0 1 66.814 30.875 Q 65.714 32.4 64.364 33.35 A 537.906 537.906 0 0 0 66.014 33.056 A 446.726 446.726 0 0 0 67.564 32.775 Q 69.064 32.5 70.514 32.2 Q 71.964 31.9 73.464 31.575 Q 74.964 31.25 76.714 30.85 Z M 46.414 10.85 L 45.514 11.75 A 20.134 20.134 0 0 1 44.861 12.037 Q 44.466 12.202 44.014 12.375 Q 43.164 12.7 42.264 12.8 Q 41.264 12.9 39.989 13 A 20.708 20.708 0 0 1 39.111 13.049 Q 38.133 13.084 36.914 13.05 A 331.294 331.294 0 0 1 36.383 15.194 A 243.531 243.531 0 0 1 35.889 17.125 A 23.23 23.23 0 0 0 35.422 19.338 A 19.133 19.133 0 0 0 35.264 20.6 Q 35.186 21.072 35.541 21.266 A 0.946 0.946 0 0 0 35.764 21.35 A 1.105 1.105 0 0 0 35.969 21.401 Q 36.501 21.485 37.538 21.243 A 11.929 11.929 0 0 0 37.714 21.2 Q 39.064 20.85 40.664 20.35 A 455.261 455.261 0 0 1 43.135 19.586 A 507.421 507.421 0 0 1 43.989 19.325 Q 45.714 18.8 47.464 18.375 A 30.317 30.317 0 0 1 50.033 17.864 A 26.907 26.907 0 0 1 50.864 17.75 A 0.376 0.376 0 0 1 50.829 17.805 Q 50.766 17.89 50.621 18.021 A 4.06 4.06 0 0 1 50.589 18.05 A 14.223 14.223 0 0 1 50.352 18.256 A 18.231 18.231 0 0 1 50.089 18.475 Q 49.814 18.7 49.564 18.9 Q 49.314 19.1 49.214 19.2 Q 48.614 19.9 47.964 20.525 Q 47.314 21.15 46.264 21.75 Q 43.864 23.05 41.139 23.9 A 28.289 28.289 0 0 1 38.599 24.571 Q 37.305 24.846 36.124 24.949 A 16.323 16.323 0 0 1 36.114 24.95 A 0.566 0.566 0 0 1 35.914 24.916 Q 35.759 24.858 35.664 24.7 A 7.555 7.555 0 0 1 35.479 24.372 A 9.312 9.312 0 0 1 35.364 24.15 A 6.405 6.405 0 0 0 35.308 24.067 Q 35.244 23.974 35.153 23.847 A 26.524 26.524 0 0 0 35.064 23.725 Q 34.864 23.45 34.639 23.15 A 52.4 52.4 0 0 1 34.421 22.856 A 45.235 45.235 0 0 1 34.214 22.575 A 2.425 2.425 0 0 1 34.104 22.41 Q 34.002 22.243 33.967 22.109 A 0.678 0.678 0 0 1 33.964 22.1 Q 33.514 20.75 33.539 19.625 Q 33.564 18.5 33.864 17.4 Q 34.164 16.3 34.589 15.25 A 22.733 22.733 0 0 0 35.173 13.627 A 26.357 26.357 0 0 0 35.364 13 Q 34.764 13 34.614 12.95 A 55.155 55.155 0 0 1 33.974 12.946 Q 33.471 12.941 33.064 12.925 Q 32.414 12.9 32.014 12.7 A 1.45 1.45 0 0 1 31.756 12.564 Q 31.643 12.489 31.529 12.389 A 2.411 2.411 0 0 1 31.514 12.375 A 8.732 8.732 0 0 0 31.334 12.217 Q 31.189 12.094 31.064 12 Q 30.808 11.786 30.624 11.719 A 0.584 0.584 0 0 0 30.564 11.7 A 0.811 0.811 0 0 1 30.408 11.642 Q 30.335 11.607 30.257 11.555 A 1.981 1.981 0 0 1 30.114 11.45 A 1.03 1.03 0 0 1 30.096 11.319 Q 30.084 11.146 30.139 11 A 1.153 1.153 0 0 0 30.212 10.675 A 1.069 1.069 0 0 0 30.214 10.6 A 1.419 1.419 0 0 0 30.19 10.331 A 1.241 1.241 0 0 0 30.164 10.225 A 0.429 0.429 0 0 1 30.149 10.143 Q 30.139 10.026 30.201 9.92 A 0.453 0.453 0 0 1 30.214 9.9 Q 30.414 9.8 30.989 9.725 A 8.119 8.119 0 0 0 31.256 9.686 Q 31.517 9.643 31.687 9.593 A 1.422 1.422 0 0 0 31.814 9.55 Q 32.604 9.342 34.034 9.255 A 29.298 29.298 0 0 1 34.639 9.225 A 56.955 56.955 0 0 1 36.377 9.183 Q 37.471 9.173 38.639 9.2 A 53.797 53.797 0 0 1 42.243 9.402 A 48.569 48.569 0 0 1 42.739 9.45 Q 44.714 9.65 45.864 9.95 A 0.889 0.889 0 0 0 45.996 10.002 Q 46.196 10.064 46.539 10.1 Q 47.014 10.15 47.014 10.4 Q 47.014 10.497 46.803 10.594 A 1.277 1.277 0 0 1 46.789 10.6 A 1.374 1.374 0 0 0 46.571 10.72 A 1.096 1.096 0 0 0 46.414 10.85 Z M 9.814 14.6 Q 9.464 15.65 8.889 17.125 A 94.973 94.973 0 0 0 8.308 18.656 A 115.394 115.394 0 0 0 7.714 20.3 A 87.488 87.488 0 0 0 6.828 22.948 A 99.187 99.187 0 0 0 6.539 23.875 Q 5.964 25.75 5.564 27.7 Q 6.464 27.4 7.289 26.875 A 3.876 3.876 0 0 0 8.008 26.294 A 3.114 3.114 0 0 0 8.514 25.6 A 2.745 2.745 0 0 0 8.841 24.278 A 3.187 3.187 0 0 0 8.839 24.175 A 2.621 2.621 0 0 0 8.728 23.522 Q 8.575 23.002 8.214 22.4 A 0.102 0.102 0 0 1 8.205 22.371 Q 8.186 22.256 8.339 21.95 A 16.316 16.316 0 0 0 8.509 21.6 Q 8.596 21.415 8.688 21.209 A 26.633 26.633 0 0 0 8.714 21.15 A 6.837 6.837 0 0 0 8.889 20.526 Q 8.951 20.256 9.065 20.072 A 0.983 0.983 0 0 1 9.114 20 Q 9.264 19.85 9.289 19.725 Q 9.311 19.615 9.507 19.602 A 0.845 0.845 0 0 1 9.564 19.6 Q 9.784 19.6 10.058 19.708 A 2.536 2.536 0 0 1 10.264 19.8 Q 10.664 20 10.764 20.3 A 6.976 6.976 0 0 1 10.83 20.639 Q 10.89 20.991 10.939 21.45 A 8.078 8.078 0 0 1 10.983 22.184 Q 10.989 22.546 10.966 22.93 A 10.774 10.774 0 0 1 10.964 22.95 Q 10.914 23.75 10.689 24.5 Q 10.464 25.25 9.914 25.8 Q 9.571 26.144 9.19 26.635 A 13.324 13.324 0 0 0 9.064 26.8 Q 8.614 27.4 8.139 28.025 Q 7.664 28.65 7.164 29.25 Q 6.664 29.85 6.064 30.3 Q 5.814 30.5 5.489 30.525 Q 5.164 30.55 4.864 30.65 A 3.058 3.058 0 0 0 4.575 30.783 A 2.508 2.508 0 0 0 4.414 30.875 A 0.788 0.788 0 0 1 4.166 30.974 Q 4.05 31 3.914 31 A 0.839 0.839 0 0 1 3.72 30.957 Q 3.462 30.863 3.417 30.596 A 0.632 0.632 0 0 1 3.414 30.575 Q 3.38 30.317 3.369 29.977 A 10.381 10.381 0 0 1 3.364 29.65 Q 3.364 29.35 3.314 29.025 Q 3.264 28.7 3.314 28.4 Q 3.614 26.75 4.114 24.9 Q 4.614 23.05 5.164 21.225 Q 5.714 19.4 6.314 17.675 Q 6.914 15.95 7.414 14.55 Q 7.414 14.351 6.626 14.498 A 6.744 6.744 0 0 0 6.614 14.5 Q 6.064 14.603 5.361 14.777 A 38.289 38.289 0 0 0 4.689 14.95 Q 3.564 15.25 2.414 15.625 A 68.631 68.631 0 0 0 1.871 15.805 Q 1.102 16.063 0.614 16.25 A 0.658 0.658 0 0 1 0.535 16.263 Q 0.19 16.296 0.045 15.897 A 1.233 1.233 0 0 1 0.014 15.8 A 0.131 0.131 0 0 1 0 15.741 Q 0 15.668 0.081 15.584 A 0.565 0.565 0 0 1 0.089 15.575 Q 0.179 15.486 0.179 15.409 A 0.131 0.131 0 0 0 0.164 15.35 A 0.116 0.116 0 0 0 0.186 15.316 Q 0.22 15.242 0.239 15.05 Q 0.264 14.8 0.264 14.55 A 4.49 4.49 0 0 1 0.277 14.204 A 3.869 3.869 0 0 1 0.289 14.075 A 0.932 0.932 0 0 1 0.309 13.958 Q 0.342 13.822 0.414 13.75 A 3.57 3.57 0 0 1 0.849 13.42 Q 1.261 13.15 1.839 12.9 Q 2.764 12.5 3.814 12.225 A 16.757 16.757 0 0 1 5.285 11.907 A 14.452 14.452 0 0 1 5.839 11.825 A 13.004 13.004 0 0 1 6.335 11.771 Q 6.881 11.722 7.281 11.741 A 3.877 3.877 0 0 1 7.414 11.75 A 1.895 1.895 0 0 1 7.693 11.805 Q 7.908 11.866 8.064 11.975 A 2.667 2.667 0 0 0 8.377 12.164 A 2.214 2.214 0 0 0 8.564 12.25 Q 8.756 12.327 9.094 12.432 A 19.068 19.068 0 0 0 9.314 12.5 Q 9.706 12.617 9.883 12.765 A 0.512 0.512 0 0 1 9.964 12.85 A 0.764 0.764 0 0 1 10.143 13.355 Q 10.143 13.428 10.132 13.505 A 1.274 1.274 0 0 1 10.114 13.6 A 6.689 6.689 0 0 1 9.999 14.044 Q 9.921 14.308 9.814 14.6 Z M 90.114 13.2 L 90.664 10.7 Q 90.964 9.35 91.314 7.75 Q 91.615 6.375 91.99 4.631 A 1256.424 1256.424 0 0 0 92.114 4.05 A 3.204 3.204 0 0 1 92.166 3.866 Q 92.222 3.686 92.286 3.578 A 0.571 0.571 0 0 1 92.339 3.5 A 5.067 5.067 0 0 1 92.43 3.395 Q 92.475 3.343 92.516 3.3 A 2.574 2.574 0 0 1 92.564 3.25 Q 92.764 3.1 92.839 3.3 A 1.935 1.935 0 0 0 92.926 3.498 A 1.498 1.498 0 0 0 93.014 3.65 A 0.835 0.835 0 0 1 93.116 3.833 Q 93.184 3.996 93.214 4.225 A 4.17 4.17 0 0 0 93.282 4.602 A 3.184 3.184 0 0 0 93.364 4.9 Q 93.45 5.244 93.536 5.68 A 23.267 23.267 0 0 1 93.564 5.825 A 14.479 14.479 0 0 0 93.639 6.192 Q 93.67 6.336 93.702 6.463 A 6.796 6.796 0 0 0 93.764 6.7 A 1.105 1.105 0 0 0 93.83 6.877 Q 93.928 7.078 94.089 7.15 A 0.373 0.373 0 0 1 94.183 7.208 Q 94.302 7.312 94.264 7.5 Q 93.964 10.05 93.664 12 A 70.408 70.408 0 0 1 93.172 14.827 A 62.043 62.043 0 0 1 92.989 15.725 A 66.828 66.828 0 0 1 92.13 19.292 A 72.652 72.652 0 0 1 92.114 19.35 Q 91.63 21.14 90.959 23.352 A 189.98 189.98 0 0 1 90.914 23.5 A 3.536 3.536 0 0 1 90.629 24.25 A 4.502 4.502 0 0 1 90.364 24.7 A 3.923 3.923 0 0 1 89.533 25.61 A 3.7 3.7 0 0 1 89.414 25.7 A 2.706 2.706 0 0 1 88.816 26.033 A 2.264 2.264 0 0 1 88.264 26.175 A 1.373 1.373 0 0 1 88.094 26.186 Q 87.586 26.186 87.114 25.8 Q 86.712 25.308 86.109 24.536 A 139.519 139.519 0 0 1 85.964 24.35 Q 85.264 23.45 84.614 22.375 Q 83.964 21.3 83.564 20.15 Q 83.273 19.314 83.273 18.504 A 4.463 4.463 0 0 1 83.314 17.9 A 3.169 3.169 0 0 1 83.523 17.012 A 2.591 2.591 0 0 1 84.064 16.175 Q 84.714 15.5 85.639 15.2 Q 86.432 14.943 87.335 14.943 A 6.545 6.545 0 0 1 87.639 14.95 Q 88.714 15 89.614 15.35 Q 89.714 14.8 89.864 14.275 Q 90.014 13.75 90.114 13.2 Z M 24.164 21.95 Q 24.664 20.55 25.264 19.6 Q 26.102 19.6 26.26 20.231 A 1.058 1.058 0 0 1 26.264 20.25 A 14.095 14.095 0 0 1 26.432 21.102 A 17.018 17.018 0 0 1 26.514 21.65 Q 26.551 21.943 26.654 22.142 A 0.872 0.872 0 0 0 26.739 22.275 Q 26.898 22.48 26.954 22.911 A 3.098 3.098 0 0 1 26.964 23 Q 26.964 25.25 26.789 27.6 Q 26.614 29.95 26.214 32.25 Q 25.814 34.55 25.164 36.75 A 25.509 25.509 0 0 1 23.91 40.127 A 22.836 22.836 0 0 1 23.564 40.85 Q 23.314 41.4 22.739 41.95 Q 22.164 42.5 21.614 42.6 Q 21.273 42.685 21.022 42.461 A 0.868 0.868 0 0 1 20.939 42.375 A 2.89 2.89 0 0 0 20.701 42.128 Q 20.565 42 20.395 41.869 A 6.08 6.08 0 0 0 20.164 41.7 A 2.828 2.828 0 0 1 19.84 41.407 Q 19.669 41.225 19.558 41.031 A 1.666 1.666 0 0 1 19.514 40.95 Q 19.327 40.575 18.964 40.2 A 4.421 4.421 0 0 0 18.914 40.15 Q 18.114 39.3 17.389 38.4 Q 16.664 37.5 16.564 36.35 A 7.422 7.422 0 0 1 16.548 35.856 Q 16.548 34.866 16.823 33.979 A 5.859 5.859 0 0 1 16.964 33.575 Q 17.464 32.3 18.339 31.225 Q 19.214 30.15 20.414 29.325 Q 21.614 28.5 22.964 27.95 A 105.608 105.608 0 0 1 23.287 25.788 A 87.058 87.058 0 0 1 23.489 24.575 A 20.021 20.021 0 0 1 23.713 23.468 Q 23.839 22.929 23.984 22.471 A 9.539 9.539 0 0 1 24.164 21.95 Z M 54.114 25.65 L 53.614 26.05 L 53.314 26.35 Q 52.764 26.9 52.214 27.35 A 49.611 49.611 0 0 0 51.823 27.673 Q 51.669 27.802 51.529 27.921 A 27.998 27.998 0 0 0 51.264 28.15 A 20.573 20.573 0 0 1 49.71 29.032 A 27.525 27.525 0 0 1 48.139 29.775 Q 46.364 30.55 44.439 31.15 Q 42.514 31.75 40.539 32.125 A 30.363 30.363 0 0 1 37.906 32.511 A 25.794 25.794 0 0 1 36.764 32.6 A 16.661 16.661 0 0 1 35.655 32.649 Q 35 32.656 34.386 32.606 A 12.631 12.631 0 0 1 34.314 32.6 A 3.618 3.618 0 0 1 33.72 32.476 A 3.224 3.224 0 0 1 33.564 32.425 Q 33.214 32.3 32.864 32.2 L 31.214 31.75 Q 31.178 31.605 31.178 31.466 A 1.028 1.028 0 0 1 31.289 31 A 11.406 11.406 0 0 0 31.41 30.752 Q 31.502 30.556 31.564 30.4 Q 31.714 29.9 32.164 29.675 Q 32.614 29.45 33.264 29.35 A 7.036 7.036 0 0 1 33.808 29.282 A 7.809 7.809 0 0 1 33.889 29.275 Q 34.214 29.25 34.564 29.25 L 36.414 29.25 Q 36.684 29.25 36.834 29.22 A 0.65 0.65 0 0 0 36.914 29.2 A 80.507 80.507 0 0 0 43.908 27.883 A 71.057 71.057 0 0 0 46.114 27.325 Q 50.464 26.15 54.864 24.95 A 0.376 0.376 0 0 1 54.829 25.005 Q 54.766 25.09 54.621 25.221 A 4.06 4.06 0 0 1 54.589 25.25 A 11.835 11.835 0 0 1 54.176 25.6 A 12.971 12.971 0 0 1 54.114 25.65 Z M 96.364 28.2 Q 96.764 28.15 97.239 28.1 A 9.591 9.591 0 0 1 97.696 28.063 A 7.35 7.35 0 0 1 98.114 28.05 A 5.341 5.341 0 0 1 98.397 28.057 Q 98.617 28.069 98.789 28.1 A 0.594 0.594 0 0 1 98.896 28.129 Q 98.952 28.15 98.989 28.181 A 0.209 0.209 0 0 1 99.064 28.35 A 0.024 0.024 0 0 1 99.064 28.355 Q 99.053 28.405 98.844 28.638 A 9.412 9.412 0 0 1 98.764 28.725 A 5.147 5.147 0 0 1 98.511 28.979 Q 98.372 29.11 98.205 29.252 A 10.92 10.92 0 0 1 97.964 29.45 A 2.834 2.834 0 0 1 97.781 29.696 Q 97.574 29.945 97.366 30.049 A 0.75 0.75 0 0 1 97.364 30.05 Q 97.064 30.2 96.714 30.4 A 6.188 6.188 0 0 0 96.369 30.649 A 7.936 7.936 0 0 0 96.089 30.875 Q 95.764 31.15 95.364 31.25 A 230.432 230.432 0 0 0 92.746 31.831 A 270.711 270.711 0 0 0 89.989 32.475 A 81.752 81.752 0 0 1 84.802 33.543 A 74.83 74.83 0 0 1 84.464 33.6 A 9.152 9.152 0 0 0 84.118 33.677 Q 83.699 33.778 83.114 33.95 A 19.031 19.031 0 0 0 82.512 34.138 Q 82.217 34.235 81.959 34.333 A 9.932 9.932 0 0 0 81.664 34.45 Q 81.264 34.55 80.839 34.575 A 5.168 5.168 0 0 1 80.712 34.581 Q 80.474 34.589 80.32 34.569 A 0.927 0.927 0 0 1 80.215 34.55 A 3.067 3.067 0 0 1 80.352 34.33 Q 80.422 34.229 80.491 34.149 A 1.312 1.312 0 0 1 80.614 34.025 Q 80.812 33.852 81.108 33.557 A 21.507 21.507 0 0 0 81.114 33.55 A 9.141 9.141 0 0 0 81.307 33.351 Q 81.398 33.254 81.5 33.141 A 20.333 20.333 0 0 0 81.714 32.9 Q 82.064 32.5 82.564 32.15 Q 83.814 31.35 85.439 30.75 A 35.368 35.368 0 0 1 87.989 29.92 A 40.195 40.195 0 0 1 88.889 29.675 Q 90.714 29.2 92.614 28.85 Q 94.514 28.5 96.364 28.2 Z M 81.614 25.45 A 3.422 3.422 0 0 0 81.667 25.496 Q 82.125 25.892 82.314 25.75 A 0.268 0.268 0 0 0 82.349 25.707 Q 82.392 25.643 82.377 25.568 A 0.241 0.241 0 0 0 82.364 25.525 A 0.671 0.671 0 0 1 82.334 25.427 A 0.783 0.783 0 0 1 82.314 25.25 Q 82.355 24.966 82.33 24.417 A 13.208 13.208 0 0 0 82.314 24.15 A 1.062 1.062 0 0 1 82.294 24.047 Q 82.279 23.945 82.281 23.832 A 1.654 1.654 0 0 1 82.289 23.7 A 1.674 1.674 0 0 0 82.298 23.533 A 1.696 1.696 0 0 0 82.264 23.2 Q 81.964 22.3 81.839 20.875 A 19.34 19.34 0 0 1 81.805 20.424 Q 81.76 19.723 81.761 18.969 A 26.635 26.635 0 0 1 81.789 17.8 A 31.468 31.468 0 0 1 81.79 17.774 A 34.455 34.455 0 0 1 82.114 14.425 A 31.504 31.504 0 0 1 82.323 13.163 A 26.474 26.474 0 0 1 82.764 11.2 A 0.202 0.202 0 0 0 82.772 11.171 Q 82.798 11.018 82.639 10.7 Q 82.464 10.35 82.364 9.85 A 2.481 2.481 0 0 1 82.314 9.638 A 2.837 2.837 0 0 1 82.264 9.1 Q 82.264 8.7 82.064 8.45 A 32.141 32.141 0 0 0 81.961 8.33 Q 81.746 8.082 81.664 8 A 0.367 0.367 0 0 1 81.629 7.959 Q 81.612 7.936 81.596 7.908 A 0.922 0.922 0 0 1 81.564 7.85 A 0.43 0.43 0 0 0 81.543 7.812 Q 81.521 7.777 81.499 7.762 A 0.06 0.06 0 0 0 81.464 7.75 A 0.332 0.332 0 0 0 81.242 7.835 Q 81.187 7.882 81.14 7.955 A 0.969 0.969 0 0 0 81.064 8.1 A 38.354 38.354 0 0 0 80.975 8.309 Q 80.883 8.528 80.814 8.7 Q 80.214 10.3 79.789 12.675 Q 79.364 15.05 79.339 17.5 A 22.803 22.803 0 0 0 79.338 17.733 Q 79.338 20.052 79.814 22.1 Q 80.025 23.007 80.379 23.745 A 5.551 5.551 0 0 0 81.614 25.45 Z M 23.485 4.803 A 77.956 77.956 0 0 0 23.414 5.6 Q 23.264 7.4 23.164 9.45 Q 23.064 11.5 22.989 13.55 A 136.605 136.605 0 0 0 22.944 14.996 Q 22.929 15.561 22.922 16.062 A 64.418 64.418 0 0 0 22.914 17 Q 22.814 17.45 22.514 17.775 A 1.708 1.708 0 0 0 22.198 18.254 A 1.576 1.576 0 0 0 22.114 18.5 Q 21.864 19.4 21.564 19.6 A 1.297 1.297 0 0 1 21.459 19.657 Q 21.061 19.848 20.945 19.494 A 0.664 0.664 0 0 1 20.939 19.475 Q 20.831 19.108 20.742 18.46 A 16.576 16.576 0 0 1 20.714 18.25 Q 20.514 15.55 20.364 13.25 A 47.756 47.756 0 0 1 20.278 11.403 Q 20.246 10.158 20.289 9.05 A 18.554 18.554 0 0 1 20.461 7.13 A 14.316 14.316 0 0 1 20.764 5.6 A 8.622 8.622 0 0 1 21.549 3.593 A 7.697 7.697 0 0 1 22.014 2.85 Q 22.061 2.804 22.214 2.736 A 2.568 2.568 0 0 1 22.239 2.725 A 6.267 6.267 0 0 0 22.421 2.644 A 7.975 7.975 0 0 0 22.614 2.55 Q 22.864 2.4 23.164 2.2 Q 23.464 2 23.664 2.05 A 0.185 0.185 0 0 1 23.748 2.068 Q 23.85 2.119 23.841 2.318 A 0.832 0.832 0 0 1 23.839 2.35 A 1.818 1.818 0 0 1 23.808 2.569 Q 23.786 2.678 23.75 2.77 A 0.963 0.963 0 0 1 23.714 2.85 Q 23.599 3.577 23.485 4.803 Z M 15.764 23.35 L 15.914 23.85 A 12.509 12.509 0 0 1 16.178 25.527 A 15.71 15.71 0 0 1 16.239 26.7 A 48.151 48.151 0 0 1 16.246 27.477 A 49.368 49.368 0 0 1 16.189 29.825 Q 16.114 31.4 16.014 32.95 A 51.638 51.638 0 0 0 15.94 34.403 Q 15.915 35.093 15.914 35.71 A 31.407 31.407 0 0 0 15.914 35.75 A 0.145 0.145 0 0 1 15.87 35.85 Q 15.793 35.932 15.584 35.994 A 1.768 1.768 0 0 1 15.564 36 A 2.08 2.08 0 0 0 15.383 36.06 Q 15.172 36.142 15.064 36.25 A 1.806 1.806 0 0 1 14.96 36.346 Q 14.851 36.438 14.692 36.553 A 7.31 7.31 0 0 1 14.589 36.625 A 1.092 1.092 0 0 1 14.525 36.667 Q 14.259 36.824 14.214 36.6 A 27.708 27.708 0 0 1 13.651 31.072 A 26.908 26.908 0 0 1 13.664 30.225 A 17.993 17.993 0 0 1 14.67 24.899 A 20.946 20.946 0 0 1 15.064 23.85 A 0.961 0.961 0 0 1 15.152 23.772 Q 15.208 23.728 15.264 23.7 Q 15.358 23.653 15.452 23.562 A 1.106 1.106 0 0 0 15.464 23.55 A 0.065 0.065 0 0 0 15.493 23.542 Q 15.531 23.522 15.589 23.456 A 1.116 1.116 0 0 0 15.614 23.425 A 0.575 0.575 0 0 1 15.642 23.392 Q 15.72 23.309 15.762 23.348 A 0.061 0.061 0 0 1 15.764 23.35 Z M 8 10.069 A 3.943 3.943 0 0 0 8.214 10.5 Q 8.664 10.6 8.864 9.8 A 1.097 1.097 0 0 1 8.9 9.708 Q 8.951 9.592 9.039 9.45 Q 9.164 9.25 9.164 9.05 A 76.377 76.377 0 0 0 9.208 7.963 A 93.175 93.175 0 0 0 9.239 6.8 Q 9.264 5.6 9.164 4.4 Q 9.064 3.2 8.789 2.075 A 10.077 10.077 0 0 0 8.698 1.728 A 8.884 8.884 0 0 0 8.014 0 A 2.574 2.574 0 0 0 7.966 0.05 Q 7.925 0.093 7.88 0.145 A 5.067 5.067 0 0 0 7.789 0.25 Q 7.719 0.334 7.641 0.435 A 10.775 10.775 0 0 0 7.514 0.6 A 6.318 6.318 0 0 1 7.476 0.65 A 6.925 6.925 0 0 1 7.189 1 Q 7.014 1.2 6.964 1.45 Q 6.814 2.25 6.864 3.55 Q 6.914 4.85 7.089 6.2 A 23.709 23.709 0 0 0 7.238 7.188 A 19.928 19.928 0 0 0 7.564 8.725 A 14.442 14.442 0 0 0 7.623 8.947 Q 7.803 9.608 8 10.069 Z M 18.564 36.6 A 2.621 2.621 0 0 0 18.746 36.873 Q 18.924 37.109 19.189 37.375 Q 19.614 37.8 20.114 38.175 A 15.578 15.578 0 0 0 20.79 38.655 A 13.267 13.267 0 0 0 21.089 38.85 A 5.526 5.526 0 0 0 21.313 38.984 Q 21.627 39.163 21.814 39.2 Q 21.948 38.216 22.083 36.652 A 106.004 106.004 0 0 0 22.114 36.275 Q 22.264 34.45 22.514 32.3 Q 21.664 32.75 20.864 33.325 A 11.126 11.126 0 0 0 20.057 33.961 A 8.612 8.612 0 0 0 19.489 34.5 A 6.422 6.422 0 0 0 19.1 34.943 Q 18.906 35.187 18.765 35.422 A 3.367 3.367 0 0 0 18.639 35.65 A 1.762 1.762 0 0 0 18.542 35.882 Q 18.48 36.069 18.48 36.237 A 0.801 0.801 0 0 0 18.564 36.6 Z M 84.914 19.65 A 1.802 1.802 0 0 0 84.85 20.126 Q 84.85 20.446 84.964 20.775 Q 85.164 21.35 85.564 21.85 Q 85.964 22.35 86.464 22.7 A 3.525 3.525 0 0 0 86.859 22.941 Q 87.073 23.052 87.277 23.114 A 1.921 1.921 0 0 0 87.414 23.15 Q 87.864 21.75 88.239 20.525 A 52.694 52.694 0 0 0 88.578 19.374 Q 88.732 18.825 88.856 18.332 A 32.444 32.444 0 0 0 88.864 18.3 Q 87.774 18.13 86.951 18.249 A 3.56 3.56 0 0 0 86.239 18.425 A 2.733 2.733 0 0 0 85.632 18.731 A 1.834 1.834 0 0 0 84.914 19.65 Z" vector-effect="non-scaling-stroke"/></g></svg>
