<svg height="512pt" viewBox="-60 0 512 512.09516" width="512pt" xmlns="http://www.w3.org/2000/svg"><path d="m349.914062 42.761719c0 14.136719-11.460937 25.601562-25.601562 25.601562-14.136719 0-25.597656-11.464843-25.597656-25.601562s11.460937-25.601563 25.597656-25.601563c14.140625 0 25.601562 11.464844 25.601562 25.601563zm0 0" fill="#3f51b5"/><path d="m247.515625 307.296875c.007813 10.367187-6.230469 19.714844-15.808594 23.6875-9.574219 3.972656-20.601562 1.78125-27.933593-5.550781-7.328126-7.328125-9.519532-18.355469-5.550782-27.933594 3.972656-9.574219 13.324219-15.8125 23.691406-15.804688 6.792969-.007812 13.308594 2.683594 18.113282 7.488282 4.800781 4.800781 7.496094 11.320312 7.488281 18.113281zm0 0" fill="#00838f"/><path d="m221.914062 307.296875c.011719 9.152344-4.871093 17.613281-12.800781 22.183594-7.921875-4.578125-12.800781-13.035157-12.800781-22.183594 0-9.152344 4.878906-17.609375 12.800781-22.1875 7.929688 4.570313 12.8125 13.03125 12.800781 22.1875zm0 0" fill="#00bcd4"/><path d="m298.714844 281.695312c.007812 10.367188-6.230469 19.71875-15.808594 23.691407-9.574219 3.96875-20.601562 1.777343-27.933594-5.550781-7.328125-7.332032-9.519531-18.359376-5.546875-27.933594 3.96875-9.578125 13.320313-15.816406 23.6875-15.808594 6.792969-.007812 13.308594 2.6875 18.113281 7.488281 4.800782 4.804688 7.496094 11.320313 7.488282 18.113281zm0 0" fill="#00838f"/><path d="m273.113281 281.695312c.011719 9.152344-4.867187 17.617188-12.800781 22.1875-7.917969-4.582031-12.796875-13.039062-12.796875-22.1875 0-9.152343 4.878906-17.605468 12.796875-22.1875 7.933594 4.570313 12.8125 13.035157 12.800781 22.1875zm0 0" fill="#00bcd4"/><path d="m375.515625 76.894531c0 14.140625-11.460937 25.601563-25.601563 25.601563-14.136718 0-25.601562-11.460938-25.601562-25.601563 0-14.136719 11.464844-25.597656 25.601562-25.597656 14.140626 0 25.601563 11.460937 25.601563 25.597656zm0 0" fill="#3f51b5"/><path d="m392.582031 111.027344c0 14.140625-11.460937 25.601562-25.601562 25.601562-14.136719 0-25.597657-11.460937-25.597657-25.601562 0-14.136719 11.460938-25.597656 25.597657-25.597656 14.140625 0 25.601562 11.460937 25.601562 25.597656zm0 0" fill="#02a9f4"/><path d="m392.582031 153.695312c0 14.136719-11.460937 25.601563-25.601562 25.601563-14.136719 0-25.597657-11.464844-25.597657-25.601563 0-14.136718 11.460938-25.601562 25.597657-25.601562 14.140625 0 25.601562 11.464844 25.601562 25.601562zm0 0" fill="#02a9f4"/><path d="m375.515625 204.894531c.007813 10.367188-6.230469 19.71875-15.808594 23.691407-9.574219 3.96875-20.601562 1.78125-27.933593-5.550782-7.328126-7.332031-9.519532-18.355468-5.550782-27.933594 3.972656-9.574218 13.324219-15.816406 23.691406-15.804687 6.792969-.011719 13.308594 2.683594 18.113282 7.484375 4.800781 4.804688 7.496094 11.320312 7.488281 18.113281zm0 0" fill="#0377bc"/><path d="m349.914062 204.894531c.011719 9.152344-4.871093 17.617188-12.800781 22.1875-7.921875-4.582031-12.800781-13.035156-12.800781-22.1875 0-9.148437 4.878906-17.605469 12.800781-22.1875 7.929688 4.574219 12.8125 13.035157 12.800781 22.1875zm0 0" fill="#02a9f4"/><path d="m341.382812 247.5625c.007813 10.367188-6.230468 19.71875-15.808593 23.6875-9.578125 3.972656-20.601563 1.78125-27.933594-5.546875-7.332031-7.332031-9.519531-18.359375-5.550781-27.933594 3.972656-9.578125 13.324218-15.816406 23.691406-15.808593 6.792969-.007813 13.308594 2.6875 18.113281 7.488281 4.800781 4.804687 7.496094 11.320312 7.488281 18.113281zm0 0" fill="#00838f"/><path d="m315.78125 247.5625c.011719 9.152344-4.871094 17.613281-12.800781 22.1875-7.921875-4.582031-12.800781-13.039062-12.800781-22.1875 0-9.152344 4.878906-17.605469 12.800781-22.1875 7.929687 4.570312 12.8125 13.03125 12.800781 22.1875zm0 0" fill="#00bcd4"/><path d="m93.914062 42.761719c0 14.136719-11.460937 25.601562-25.601562 25.601562-14.136719 0-25.597656-11.464843-25.597656-25.601562s11.460937-25.601563 25.597656-25.601563c14.140625 0 25.601562 11.464844 25.601562 25.601563zm0 0" fill="#3f51b5"/><path d="m196.3125 389.785156c7.132812-13.875 21.378906-22.640625 36.980469-22.757812 22.753906 0 39.820312 14.222656 39.820312 42.667968 0 28.445313-17.066406 39.824219-28.441406 51.199219-11.378906 11.378907-48.359375 42.667969-48.359375 42.667969s-36.976562-31.289062-48.355469-42.667969c-11.378906-11.375-28.441406-22.753906-28.441406-51.199219 0-28.445312 17.066406-42.667968 39.820313-42.667968 15.601562.117187 29.847656 8.882812 36.976562 22.757812zm0 0" fill="#ef314c"/><path d="m273.113281 409.695312c0 28.414063-17.066406 39.851563-28.414062 51.199219-11.4375 11.351563-48.386719 42.667969-48.386719 42.667969s-5.460938-4.609375-12.796875-10.921875c11.773437-10.15625 28.5-24.75 35.582031-31.746094 11.351563-11.347656 28.417969-22.785156 28.417969-51.199219 0-22.527343-10.753906-36.179687-26.625-40.789062 4-1.277344 8.175781-1.910156 12.371094-1.878906 22.785156 0 39.851562 14.25 39.851562 42.667968zm0 0" fill="#bb193b"/><path d="m196.3125 432.449219c4.457031-8.671875 13.363281-14.148438 23.113281-14.222657 7.023438-.351562 13.84375 2.410157 18.644531 7.550782 4.796876 5.140625 7.082032 12.136718 6.242188 19.117187 0 17.777344-10.664062 24.890625-17.777344 32-7.109375 7.113281-30.222656 26.667969-30.222656 26.667969s-23.109375-19.554688-30.222656-26.667969c-7.109375-7.109375-17.777344-14.222656-17.777344-32-.835938-6.980469 1.449219-13.976562 6.246094-19.117187 4.800781-5.140625 11.621094-7.902344 18.644531-7.550782 9.75.074219 18.65625 5.550782 23.109375 14.222657zm0 0" fill="#e91e63"/><path d="m244.355469 444.9375c0 17.75-10.664063 24.832031-17.832031 32-7.082032 7.082031-30.210938 26.625-30.210938 26.625s-6.910156-5.890625-14.417969-12.375c6.140625-5.289062 12.628907-11.007812 15.871094-14.25 7.082031-7.167969 17.75-14.25 17.75-32 .675781-8.75-3.152344-17.242188-10.15625-22.527344 4.164063-2.78125 9.074219-4.242187 14.082031-4.183594 7.03125-.359374 13.867188 2.40625 18.671875 7.558594 4.808594 5.148438 7.089844 12.160156 6.242188 19.152344zm0 0" fill="#ad1457"/><path d="m204.847656 307.296875c0 18.847656-15.28125 34.132813-34.132812 34.132813-18.851563 0-34.132813-15.285157-34.132813-34.132813 0-18.851563 15.28125-34.136719 34.132813-34.136719 18.851562 0 34.132812 15.285156 34.132812 34.136719zm0 0" fill="#00bcd4"/><path d="m153.648438 281.695312c0 18.851563-15.28125 34.132813-34.132813 34.132813s-34.132813-15.28125-34.132813-34.132813c0-18.851562 15.28125-34.132812 34.132813-34.132812s34.132813 15.28125 34.132813 34.132812zm0 0" fill="#00bcd4"/><path d="m68.3125 76.894531c0 14.140625-11.460938 25.601563-25.597656 25.601563-14.140625 0-25.601563-11.460938-25.601563-25.601563 0-14.136719 11.460938-25.597656 25.601563-25.597656 14.136718 0 25.597656 11.460937 25.597656 25.597656zm0 0" fill="#3f51b5"/><g fill="#02a9f4"><path d="m51.246094 111.027344c0 14.140625-11.460938 25.601562-25.597656 25.601562-14.140626 0-25.601563-11.460937-25.601563-25.601562 0-14.136719 11.460937-25.597656 25.601563-25.597656 14.136718 0 25.597656 11.460937 25.597656 25.597656zm0 0"/><path d="m51.246094 153.695312c0 14.136719-11.460938 25.601563-25.597656 25.601563-14.140626 0-25.601563-11.464844-25.601563-25.601563 0-14.136718 11.460937-25.601562 25.601563-25.601562 14.136718 0 25.597656 11.464844 25.597656 25.601562zm0 0"/><path d="m76.847656 204.894531c0 18.851563-15.28125 34.132813-34.132812 34.132813-18.851563 0-34.132813-15.28125-34.132813-34.132813 0-18.851562 15.28125-34.132812 34.132813-34.132812 18.851562 0 34.132812 15.28125 34.132812 34.132812zm0 0"/></g><path d="m110.980469 247.5625c0 18.851562-15.28125 34.132812-34.132813 34.132812-18.851562 0-34.132812-15.28125-34.132812-34.132812s15.28125-34.132812 34.132812-34.132812c18.851563 0 34.132813 15.28125 34.132813 34.132812zm0 0" fill="#00bcd4"/><path d="m196.3125 512.09375c-2.015625.003906-3.96875-.714844-5.507812-2.019531-1.523438-1.28125-37.382813-31.644531-48.882813-43.144531-1.515625-1.519532-3.132813-3.03125-4.800781-4.589844-16.386719-12.558594-26.039063-31.996094-26.140625-52.644532 0-31.105468 18.984375-51.199218 48.359375-51.199218 14.105468-.019532 27.554687 5.972656 36.972656 16.472656 9.421875-10.5 22.871094-16.492188 36.976562-16.472656 29.375 0 48.359376 20.09375 48.359376 51.199218-.101563 20.648438-9.753907 40.085938-26.144532 52.644532-1.664062 1.558594-3.28125 3.074218-4.796875 4.589844-11.5 11.5-47.359375 41.863281-48.882812 43.144531-1.539063 1.304687-3.492188 2.023437-5.511719 2.019531zm-36.972656-136.53125c-19.882813 0-31.292969 12.441406-31.292969 34.132812 0 20.792969 10.542969 30.648438 20.738281 40.179688 1.804688 1.695312 3.566406 3.339844 5.203125 4.988281 8.402344 8.394531 31.632813 28.371094 42.324219 37.496094 10.691406-9.125 33.925781-29.101563 42.328125-37.496094 1.640625-1.648437 3.398437-3.292969 5.203125-4.988281 10.195312-9.53125 20.738281-19.386719 20.738281-40.179688 0-21.691406-11.410156-34.132812-31.292969-34.132812-12.359374.132812-23.640624 7.066406-29.339843 18.03125-1.605469 2.691406-4.503907 4.339844-7.636719 4.339844-3.128906 0-6.027344-1.648438-7.632812-4.339844-5.699219-10.964844-16.980469-17.898438-29.339844-18.03125zm0 0"/><path d="m196.3125 512.09375c-2.015625.003906-3.96875-.714844-5.507812-2.019531-.957032-.804688-23.464844-19.867188-30.75-27.140625-.921876-.929688-1.914063-1.851563-2.921876-2.800782-10.941406-8.417968-17.351562-21.433593-17.351562-35.238281-.882812-9.265625 2.289062-18.457031 8.699219-25.207031 6.410156-6.75 15.425781-10.394531 24.726562-9.992188 8.558594-.027343 16.8125 3.183594 23.105469 8.988282 6.296875-5.804688 14.550781-9.015625 23.109375-8.988282 9.300781-.402343 18.316406 3.242188 24.726563 9.992188 6.40625 6.75 9.582031 15.941406 8.699218 25.207031 0 13.804688-6.410156 26.820313-17.351562 35.238281-1.007813.949219-2 1.871094-2.921875 2.796876-7.285157 7.277343-29.792969 26.339843-30.75 27.144531-1.539063 1.304687-3.492188 2.023437-5.511719 2.019531zm-23.105469-85.332031c-10.699219 0-16.359375 6.269531-16.359375 18.132812.066406 9.074219 4.515625 17.558594 11.941406 22.773438 1.160157 1.085937 2.285157 2.140625 3.332032 3.195312 4.695312 4.6875 16.976562 15.308594 24.191406 21.484375 7.21875-6.175781 19.503906-16.800781 24.195312-21.488281 1.046876-1.050781 2.171876-2.105469 3.332032-3.191406 7.425781-5.214844 11.875-13.699219 11.941406-22.773438 0-11.859375-5.660156-18.132812-16.359375-18.132812-6.515625.066406-12.464844 3.71875-15.472656 9.5-1.605469 2.691406-4.503907 4.335937-7.636719 4.335937-3.128906 0-6.027344-1.644531-7.632812-4.335937-3.007813-5.78125-8.957032-9.433594-15.472657-9.5zm0 0"/><path d="m170.714844 341.429688c-18.851563 0-34.132813-15.285157-34.132813-34.132813 0-18.851563 15.28125-34.136719 34.132813-34.136719 18.851562 0 34.132812 15.285156 34.132812 34.136719-.019531 18.839844-15.289062 34.113281-34.132812 34.132813zm0-51.203126c-9.425782 0-17.066406 7.644532-17.066406 17.070313s7.640624 17.066406 17.066406 17.066406c9.425781 0 17.066406-7.640625 17.066406-17.066406-.011719-9.421875-7.644531-17.058594-17.066406-17.070313zm0 0"/><path d="m119.515625 315.828125c-18.851563 0-34.132813-15.28125-34.132813-34.132813 0-18.851562 15.28125-34.132812 34.132813-34.132812s34.132813 15.28125 34.132813 34.132812c-.019532 18.84375-15.292969 34.113282-34.132813 34.132813zm0-51.199219c-9.425781 0-17.066406 7.640625-17.066406 17.066406 0 9.425782 7.640625 17.066407 17.066406 17.066407s17.066406-7.640625 17.066406-17.066407c-.011719-9.421874-7.648437-17.054687-17.066406-17.066406zm0 0"/><path d="m76.847656 281.695312c-18.851562 0-34.132812-15.28125-34.132812-34.132812s15.28125-34.132812 34.132812-34.132812c18.851563 0 34.132813 15.28125 34.132813 34.132812-.019531 18.84375-15.289063 34.113281-34.132813 34.132812zm0-51.199218c-9.425781 0-17.066406 7.640625-17.066406 17.066406s7.640625 17.066406 17.066406 17.066406c9.425782 0 17.066406-7.640625 17.066406-17.066406-.011718-9.421875-7.644531-17.054688-17.066406-17.066406zm0 0"/><path d="m42.714844 239.027344c-18.851563 0-34.132813-15.28125-34.132813-34.132813 0-18.851562 15.28125-34.132812 34.132813-34.132812 18.851562 0 34.132812 15.28125 34.132812 34.132812-.019531 18.84375-15.289062 34.113281-34.132812 34.132813zm0-51.199219c-9.425782 0-17.066406 7.640625-17.066406 17.066406s7.640624 17.066407 17.066406 17.066407c9.425781 0 17.066406-7.640626 17.066406-17.066407-.011719-9.421875-7.644531-17.054687-17.066406-17.066406zm0 0"/><path d="m25.648438 179.296875c-14.140626 0-25.601563-11.464844-25.601563-25.601563 0-14.136718 11.460937-25.601562 25.601563-25.601562 14.136718 0 25.597656 11.464844 25.597656 25.601562-.015625 14.132813-11.464844 25.585938-25.597656 25.601563zm0-34.136719c-4.714844 0-8.535157 3.820313-8.535157 8.535156 0 4.710938 3.820313 8.53125 8.535157 8.53125 4.710937 0 8.53125-3.820312 8.53125-8.53125-.003907-4.710937-3.820313-8.527343-8.53125-8.535156zm0 0"/><path d="m25.648438 136.628906c-14.140626 0-25.601563-11.460937-25.601563-25.601562 0-14.136719 11.460937-25.597656 25.601563-25.597656 14.136718 0 25.597656 11.460937 25.597656 25.597656-.015625 14.132812-11.464844 25.585937-25.597656 25.601562zm0-34.132812c-4.714844 0-8.535157 3.820312-8.535157 8.53125 0 4.714844 3.820313 8.535156 8.535157 8.535156 4.710937 0 8.53125-3.820312 8.53125-8.535156-.003907-4.710938-3.820313-8.527344-8.53125-8.53125zm0 0"/><path d="m42.714844 102.496094c-14.140625 0-25.601563-11.460938-25.601563-25.601563 0-14.136719 11.460938-25.597656 25.601563-25.597656 14.136718 0 25.597656 11.460937 25.597656 25.597656-.015625 14.132813-11.464844 25.585938-25.597656 25.601563zm0-34.132813c-4.714844 0-8.535156 3.820313-8.535156 8.53125 0 4.714844 3.820312 8.535157 8.535156 8.535157 4.710937 0 8.53125-3.820313 8.53125-8.535157-.003906-4.710937-3.820313-8.527343-8.53125-8.53125zm0 0"/><path d="m68.3125 68.363281c-14.136719 0-25.597656-11.464843-25.597656-25.601562s11.460937-25.601563 25.597656-25.601563c14.140625 0 25.601562 11.464844 25.601562 25.601563-.015624 14.132812-11.46875 25.585937-25.601562 25.601562zm0-34.136719c-4.710938 0-8.53125 3.824219-8.53125 8.535157 0 4.714843 3.820312 8.535156 8.53125 8.535156 4.714844 0 8.535156-3.820313 8.535156-8.535156-.003906-4.710938-3.824218-8.527344-8.535156-8.535157zm0 0"/><path d="m81.378906 40.371094c-3.957031.007812-7.402344-2.714844-8.3125-6.566406-.910156-3.855469.949219-7.828126 4.488282-9.597657 37.242187-16.953125 77.855468-25.199219 118.757812-24.113281 4.714844 0 8.535156 3.820312 8.535156 8.535156 0 4.710938-3.820312 8.53125-8.535156 8.53125-38.246094-.988281-76.222656 6.636719-111.125 22.3125-1.179688.59375-2.484375.902344-3.808594.898438zm0 0"/><path d="m221.914062 341.429688c-18.851562 0-34.132812-15.285157-34.132812-34.132813 0-18.851563 15.28125-34.136719 34.132812-34.136719 18.851563 0 34.132813 15.285156 34.132813 34.136719-.019531 18.839844-15.289063 34.113281-34.132813 34.132813zm0-51.203126c-9.425781 0-17.066406 7.644532-17.066406 17.070313s7.640625 17.066406 17.066406 17.066406c9.425782 0 17.066407-7.640625 17.066407-17.066406-.011719-9.421875-7.644531-17.058594-17.066407-17.070313zm0 0"/><path d="m273.113281 315.828125c-18.851562 0-34.132812-15.28125-34.132812-34.132813 0-18.851562 15.28125-34.132812 34.132812-34.132812 18.851563 0 34.132813 15.28125 34.132813 34.132812-.019532 18.84375-15.289063 34.113282-34.132813 34.132813zm0-51.199219c-9.425781 0-17.066406 7.640625-17.066406 17.066406 0 9.425782 7.640625 17.066407 17.066406 17.066407s17.066407-7.640625 17.066407-17.066407c-.007813-9.421874-7.644532-17.054687-17.066407-17.066406zm0 0"/><path d="m315.78125 281.695312c-18.851562 0-34.132812-15.28125-34.132812-34.132812s15.28125-34.132812 34.132812-34.132812 34.132812 15.28125 34.132812 34.132812c-.019531 18.84375-15.289062 34.113281-34.132812 34.132812zm0-51.199218c-9.425781 0-17.066406 7.640625-17.066406 17.066406s7.640625 17.066406 17.066406 17.066406 17.066406-7.640625 17.066406-17.066406c-.011718-9.421875-7.644531-17.054688-17.066406-17.066406zm0 0"/><path d="m349.914062 239.027344c-18.851562 0-34.132812-15.28125-34.132812-34.132813 0-18.851562 15.28125-34.132812 34.132812-34.132812 18.851563 0 34.132813 15.28125 34.132813 34.132812-.019531 18.84375-15.289063 34.113281-34.132813 34.132813zm0-51.199219c-9.425781 0-17.066406 7.640625-17.066406 17.066406s7.640625 17.066407 17.066406 17.066407c9.425782 0 17.066407-7.640626 17.066407-17.066407-.011719-9.421875-7.644531-17.054687-17.066407-17.066406zm0 0"/><path d="m366.980469 179.296875c-14.136719 0-25.597657-11.464844-25.597657-25.601563 0-14.136718 11.460938-25.601562 25.597657-25.601562 14.140625 0 25.601562 11.464844 25.601562 25.601562-.015625 14.132813-11.46875 25.585938-25.601562 25.601563zm0-34.136719c-4.710938 0-8.53125 3.820313-8.53125 8.535156 0 4.710938 3.820312 8.53125 8.53125 8.53125 4.714843 0 8.535156-3.820312 8.535156-8.53125-.003906-4.710937-3.824219-8.527343-8.535156-8.535156zm0 0"/><path d="m366.980469 136.628906c-14.136719 0-25.597657-11.460937-25.597657-25.601562 0-14.136719 11.460938-25.597656 25.597657-25.597656 14.140625 0 25.601562 11.460937 25.601562 25.597656-.015625 14.132812-11.46875 25.585937-25.601562 25.601562zm0-34.132812c-4.710938 0-8.53125 3.820312-8.53125 8.53125 0 4.714844 3.820312 8.535156 8.53125 8.535156 4.714843 0 8.535156-3.820312 8.535156-8.535156-.003906-4.710938-3.824219-8.527344-8.535156-8.53125zm0 0"/><path d="m349.914062 102.496094c-14.136718 0-25.601562-11.460938-25.601562-25.601563 0-14.136719 11.464844-25.597656 25.601562-25.597656 14.140626 0 25.601563 11.460937 25.601563 25.597656-.015625 14.132813-11.46875 25.585938-25.601563 25.601563zm0-34.132813c-4.710937 0-8.53125 3.820313-8.53125 8.53125 0 4.714844 3.820313 8.535157 8.53125 8.535157 4.714844 0 8.535157-3.820313 8.535157-8.535157-.007813-4.710937-3.824219-8.527343-8.535157-8.53125zm0 0"/><path d="m324.3125 68.363281c-14.136719 0-25.597656-11.464843-25.597656-25.601562s11.460937-25.601563 25.597656-25.601563c14.140625 0 25.601562 11.464844 25.601562 25.601563-.015624 14.132812-11.46875 25.585937-25.601562 25.601562zm0-34.136719c-4.710938 0-8.53125 3.824219-8.53125 8.535157 0 4.714843 3.820312 8.535156 8.53125 8.535156 4.714844 0 8.535156-3.820313 8.535156-8.535156-.003906-4.710938-3.824218-8.527344-8.535156-8.535157zm0 0"/><path d="m196.3125 51.296875c-4.710938 0-8.53125-3.820313-8.53125-8.535156v-34.132813c0-4.714844 3.820312-8.535156 8.53125-8.535156 40.90625-1.085938 81.519531 7.160156 118.761719 24.113281 4.214843 2.109375 5.921875 7.234375 3.816406 11.449219-2.109375 4.214844-7.234375 5.925781-11.449219 3.816406-32.242187-14.578125-67.210937-22.144531-102.59375-22.203125v25.492188c0 4.714843-3.820312 8.535156-8.535156 8.535156zm0 0"/><path d="m179.246094 34.226562c-3.449219 0-6.558594-2.078124-7.878906-5.265624-1.320313-3.1875-.59375-6.859376 1.847656-9.300782l17.066406-17.066406c3.347656-3.230469 8.671875-3.1875 11.960938.105469 3.292968 3.292969 3.339843 8.613281.105468 11.960937l-17.066406 17.066406c-1.597656 1.605469-3.769531 2.503907-6.035156 2.5zm0 0"/><path d="m196.3125 392.628906c-4.710938 0-8.53125-3.820312-8.53125-8.535156v-76.796875c0-4.714844 3.820312-8.535156 8.53125-8.535156 4.714844 0 8.535156 3.820312 8.535156 8.535156v76.796875c0 4.714844-3.820312 8.535156-8.535156 8.535156zm0 0"/><path d="m76.847656 469.429688c-4.714844 0-8.535156-3.820313-8.535156-8.535157v-8.53125c0-4.714843 3.820312-8.535156 8.535156-8.535156 4.710938 0 8.535156 3.820313 8.535156 8.535156v8.53125c0 4.714844-3.824218 8.535157-8.535156 8.535157zm0 0"/><path d="m102.449219 486.496094h-8.535157c-4.710937 0-8.53125-3.820313-8.53125-8.535156 0-4.710938 3.820313-8.53125 8.53125-8.53125h8.535157c4.710937 0 8.53125 3.820312 8.53125 8.53125 0 4.714843-3.820313 8.535156-8.53125 8.535156zm0 0"/><path d="m76.847656 512.09375c-4.714844 0-8.535156-3.820312-8.535156-8.53125v-8.535156c0-4.710938 3.820312-8.53125 8.535156-8.53125 4.710938 0 8.535156 3.820312 8.535156 8.53125v8.535156c0 4.710938-3.824218 8.53125-8.535156 8.53125zm0 0"/><path d="m59.78125 486.496094h-8.535156c-4.710938 0-8.53125-3.820313-8.53125-8.535156 0-4.710938 3.820312-8.53125 8.53125-8.53125h8.535156c4.710938 0 8.53125 3.820312 8.53125 8.53125 0 4.714843-3.820312 8.535156-8.53125 8.535156zm0 0"/><path d="m315.78125 358.496094c-4.714844 0-8.535156-3.820313-8.535156-8.535156v-8.53125c0-4.714844 3.820312-8.535157 8.535156-8.535157 4.710938 0 8.53125 3.820313 8.53125 8.535157v8.53125c0 4.714843-3.820312 8.535156-8.53125 8.535156zm0 0"/><path d="m298.714844 375.5625h-8.535156c-4.710938 0-8.53125-3.820312-8.53125-8.535156 0-4.710938 3.820312-8.53125 8.53125-8.53125h8.535156c4.710937 0 8.53125 3.820312 8.53125 8.53125 0 4.714844-3.820313 8.535156-8.53125 8.535156zm0 0"/><path d="m341.382812 375.5625h-8.535156c-4.714844 0-8.535156-3.820312-8.535156-8.535156 0-4.710938 3.820312-8.53125 8.535156-8.53125h8.535156c4.710938 0 8.53125 3.820312 8.53125 8.53125 0 4.714844-3.820312 8.535156-8.53125 8.535156zm0 0"/><path d="m315.78125 401.160156c-4.714844 0-8.535156-3.820312-8.535156-8.53125v-8.535156c0-4.710938 3.820312-8.53125 8.535156-8.53125 4.710938 0 8.53125 3.820312 8.53125 8.53125v8.535156c0 4.710938-3.820312 8.53125-8.53125 8.53125zm0 0"/><path d="m42.714844 367.027344c-4.714844 0-8.535156-3.820313-8.535156-8.53125v-8.535156c0-4.710938 3.820312-8.53125 8.535156-8.53125 4.710937 0 8.53125 3.820312 8.53125 8.53125v8.535156c0 4.710937-3.820313 8.53125-8.53125 8.53125zm0 0"/><path d="m68.3125 384.09375h-8.53125c-4.714844 0-8.535156-3.820312-8.535156-8.53125 0-4.714844 3.820312-8.535156 8.535156-8.535156h8.53125c4.714844 0 8.535156 3.820312 8.535156 8.535156 0 4.710938-3.820312 8.53125-8.535156 8.53125zm0 0"/><path d="m42.714844 409.695312c-4.714844 0-8.535156-3.820312-8.535156-8.535156v-8.53125c0-4.714844 3.820312-8.535156 8.535156-8.535156 4.710937 0 8.53125 3.820312 8.53125 8.535156v8.53125c0 4.714844-3.820313 8.535156-8.53125 8.535156zm0 0"/><path d="m25.648438 384.09375h-8.535157c-4.710937 0-8.53125-3.820312-8.53125-8.53125 0-4.714844 3.820313-8.535156 8.53125-8.535156h8.535157c4.710937 0 8.53125 3.820312 8.53125 8.535156 0 4.710938-3.820313 8.53125-8.53125 8.53125zm0 0"/><path d="m341.382812 460.894531c-4.714843 0-8.535156-3.820312-8.535156-8.53125v-8.535156c0-4.710937 3.820313-8.53125 8.535156-8.53125 4.710938 0 8.53125 3.820313 8.53125 8.53125v8.535156c0 4.710938-3.820312 8.53125-8.53125 8.53125zm0 0"/><path d="m366.980469 477.960938h-8.53125c-4.714844 0-8.535157-3.820313-8.535157-8.53125 0-4.714844 3.820313-8.535157 8.535157-8.535157h8.53125c4.714843 0 8.535156 3.820313 8.535156 8.535157 0 4.710937-3.820313 8.53125-8.535156 8.53125zm0 0"/><path d="m341.382812 503.5625c-4.714843 0-8.535156-3.820312-8.535156-8.535156v-8.53125c0-4.714844 3.820313-8.535156 8.535156-8.535156 4.710938 0 8.53125 3.820312 8.53125 8.535156v8.53125c0 4.714844-3.820312 8.535156-8.53125 8.535156zm0 0"/><path d="m324.3125 477.960938h-8.53125c-4.714844 0-8.535156-3.820313-8.535156-8.53125 0-4.714844 3.820312-8.535157 8.535156-8.535157h8.53125c4.714844 0 8.535156 3.820313 8.535156 8.535157 0 4.710937-3.820312 8.53125-8.535156 8.53125zm0 0"/></svg>