<svg height="512pt" viewBox="-30 0 512 512.01895" width="512pt" xmlns="http://www.w3.org/2000/svg"><path d="m9.226562 156.203125c-3.199218 0-6.140624-1.765625-7.648437-4.585937-1.5078125-2.824219-1.339844-6.246094.4375-8.90625l22.25-33.367188c7.535156-11.277344 12.566406-24.042969 14.75-37.429688l6.945313-42.070312c.058593-.363281.144531-.722656.25-1.074219 5.183593-17.019531 20.84375-28.6796872 38.632812-28.769531 14.398438-.0820312 27.726562 7.59375 34.878906 20.089844 7.304688 12.410156 7.355469 27.796875.136719 40.257812l-6.5 11.386719v41.078125c0 4.792969-3.882813 8.679688-8.675781 8.679688-4.792969 0-8.679688-3.886719-8.679688-8.679688v-43.386719c-.007812-1.523437.386719-3.019531 1.148438-4.339843l7.644531-13.390626c4.042969-7.109374 4-15.832031-.105469-22.902343-4.109375-7.074219-11.667968-11.425781-19.847656-11.4375-9.925781.066406-18.707031 6.460937-21.816406 15.890625l-6.878906 41.472656c-2.578126 15.832031-8.527344 30.925781-17.445313 44.257812l-22.257813 33.367188c-1.609374 2.410156-4.320312 3.859375-7.21875 3.859375zm0 0" fill="#f0c419"/><path d="m252.207031 190.914062c-3.199219 0-6.136719-1.765624-7.644531-4.585937s-1.339844-6.246094.433594-8.90625l22.25-33.367187c7.535156-11.277344 12.566406-24.039063 14.753906-37.429688l6.941406-42.070312c.0625-.363282.144532-.722657.253906-1.074219 5.183594-17.019531 20.84375-28.679688 38.632813-28.769531 14.378906.003906 27.667969 7.65625 34.882813 20.09375 7.214843 12.433593 7.265624 27.769531.132812 40.253906l-6.5 11.386718v41.082032c0 4.792968-3.886719 8.675781-8.675781 8.675781-4.792969 0-8.679688-3.882813-8.679688-8.675781v-43.390625c-.007812-1.523438.386719-3.019531 1.144531-4.339844l7.644532-13.390625c4.042968-7.109375 4.003906-15.832031-.105469-22.902344-4.109375-7.070312-11.664063-11.425781-19.84375-11.433594-9.929687.0625-18.710937 6.457032-21.816406 15.886719l-6.839844 41.472657c-2.574219 15.832031-8.523437 30.925781-17.441406 44.257812l-22.257813 33.394531c-1.625 2.414063-4.351562 3.855469-7.265625 3.832031zm0 0" fill="#f0c419"/><path d="m208.820312 375.871094c-.839843 56.828125-47.574218 102.230468-104.40625 101.417968-56.832031.8125-103.566406-44.589843-104.4062495-101.417968 0-56.019532 104.4062495-193.632813 104.4062495-193.632813s104.40625 137.613281 104.40625 193.632813zm0 0" fill="#c03a2b"/><path d="m104.144531 433.898438c-29.46875-.785157-52.75-25.257813-52.066406-54.730469 0-18.015625 24.347656-65.789063 52.066406-110.148438 27.710938 44.359375 52.066407 92.132813 52.066407 110.148438.6875 29.472656-22.597657 53.945312-52.066407 54.730469zm0 0" fill="#e64c3c"/><path d="m139.394531 147.527344c0 19.167968-15.539062 34.710937-34.710937 34.710937s-34.710938-15.542969-34.710938-34.710937c0-19.171875 15.539063-34.714844 34.710938-34.714844s34.710937 15.542969 34.710937 34.714844zm0 0" fill="#f29c1f"/><path d="m451.800781 410.582031c-1.628906 56.488281-47.890625 101.4375-104.402343 101.4375-56.515626 0-102.777344-44.949219-104.40625-101.4375 0-56.015625 104.40625-193.632812 104.40625-193.632812s104.402343 137.617187 104.402343 193.632812zm0 0" fill="#c03a2b"/><path d="m347.128906 468.609375c-29.46875-.785156-52.753906-25.257813-52.070312-54.730469 0-18.015625 24.351562-65.789062 52.070312-110.148437 27.707032 44.359375 52.066406 92.132812 52.066406 110.148437.683594 29.472656-22.597656 53.945313-52.066406 54.730469zm0 0" fill="#e64c3c"/><path d="m382.378906 182.238281c0 19.171875-15.542968 34.710938-34.710937 34.710938-19.171875 0-34.714844-15.539063-34.714844-34.710938s15.542969-34.710937 34.714844-34.710937c19.167969 0 34.710937 15.539062 34.710937 34.710937zm0 0" fill="#f29c1f"/><g fill="#802f34"><path d="m208.820312 375.84375c-.828124 56.835938-47.5625 102.246094-104.398437 101.445312-27.296875.402344-53.636719-10.0625-73.21875-29.089843-19.578125-19.027344-30.792969-45.054688-31.1757812-72.355469.1367182-6.5 1.1601562-12.953125 3.0351562-19.179688 12.15625 45.890626 53.890625 77.695313 101.359375 77.234376 47.480469.488281 89.230469-31.324219 101.359375-77.234376 1.878906 6.226563 2.898438 12.679688 3.039062 19.179688zm0 0"/><path d="m451.800781 410.554688c-1.628906 56.484374-47.886719 101.429687-104.394531 101.429687s-102.769531-44.945313-104.394531-101.429687c.136719-6.5 1.15625-12.953126 3.035156-19.179688 12.550781 45.625 54.039063 77.238281 101.359375 77.238281s88.804688-31.613281 101.359375-77.238281c1.875 6.226562 2.898437 12.679688 3.035156 19.179688zm0 0"/></g></svg>