<?xml version="1.0" encoding="iso-8859-1"?>
<!-- Generator: Adobe Illustrator 19.0.0, SVG Export Plug-In . SVG Version: 6.00 Build 0)  -->
<svg version="1.1" id="Layer_1" xmlns="http://www.w3.org/2000/svg" xmlns:xlink="http://www.w3.org/1999/xlink" x="0px" y="0px"
	 viewBox="0 0 511.439 511.439" style="enable-background:new 0 0 511.439 511.439;" xml:space="preserve">
<g>
	<path style="fill:#894B9D;" d="M508.331,399.388l-40.748-236.359H255.721H43.859L3.111,399.388
		c-2.666,15.448-3.69,31.126-2.79,46.769c1.333,23.014,5.332,52.321,17.055,52.321h238.345h238.345
		c11.723,0,15.722-29.308,17.046-52.321C512.021,430.514,510.997,414.836,508.331,399.388"/>
	<g>
		<path style="fill:#69357C;" d="M192.271,198.341h-32c-5.791,0-10.478-4.696-10.478-10.478V163.03h52.957v24.832
			C202.749,193.644,198.062,198.341,192.271,198.341"/>
		<polygon style="fill:#69357C;" points="167.442,260.134 185.097,260.134 185.097,198.341 167.442,198.341 		"/>
	</g>
	<path style="fill:#F0C419;" d="M211.581,286.616c0,19.5-15.81,35.31-35.31,35.31s-35.31-15.81-35.31-35.31
		c0-19.5,15.81-35.31,35.31-35.31S211.581,267.116,211.581,286.616"/>
	<g>
		<path style="fill:#69357C;" d="M185.099,295.444h-17.655c-4.882,0-8.828-3.955-8.828-8.828s3.946-8.828,8.828-8.828h17.655
			c4.882,0,8.828,3.955,8.828,8.828S189.98,295.444,185.099,295.444"/>
		<path style="fill:#69357C;" d="M404.685,163.03c-8.925-55.499-47.801-150.069-140.138-150.069s-131.213,94.57-140.138,150.069
			h36.052c2.613-12.465,8.148-33.721,18.741-54.652c20.171-39.883,48.896-60.107,85.345-60.107s65.174,20.224,85.345,60.107
			c10.593,20.93,16.128,42.187,18.741,54.652H404.685z"/>
		<path style="fill:#69357C;" d="M43.857,163.03L3.109,399.389c-2.666,15.439-3.69,31.126-2.79,46.769
			c0.865,14.892,2.86,32.371,7.318,42.893l0.909,0.6c0,0,79.448-67.681,79.448-326.621H43.857z"/>
		<path style="fill:#69357C;" d="M467.581,163.03l40.748,236.359c2.666,15.439,3.69,31.126,2.79,46.769
			c-0.865,14.892-2.86,32.371-7.318,42.893l-0.909,0.6c0,0-79.448-67.681-79.448-326.621H467.581z"/>
	</g>
</g>
<g>
</g>
<g>
</g>
<g>
</g>
<g>
</g>
<g>
</g>
<g>
</g>
<g>
</g>
<g>
</g>
<g>
</g>
<g>
</g>
<g>
</g>
<g>
</g>
<g>
</g>
<g>
</g>
<g>
</g>
</svg>
