<?xml version="1.0" encoding="iso-8859-1"?>
<!-- Generator: Adobe Illustrator 19.0.0, SVG Export Plug-In . SVG Version: 6.00 Build 0)  -->
<svg version="1.1" id="Layer_1" xmlns="http://www.w3.org/2000/svg" xmlns:xlink="http://www.w3.org/1999/xlink" x="0px" y="0px"
	 viewBox="0 0 512 512" style="enable-background:new 0 0 512 512;" xml:space="preserve">
<g transform="translate(1 1)">
	<g>
		<path style="fill:#FFE100;" d="M348.013,237.933c0.853,5.973,1.707,11.093,1.707,17.067s-0.853,11.093-1.707,17.067h26.453
			c5.12,0,8.533-3.413,8.533-8.533v-17.067c0-5.12-3.413-8.533-8.533-8.533H348.013z"/>
		<path style="fill:#FFE100;" d="M237.933,144.067c22.187,0,42.667,6.827,59.733,17.92V41.667c0-18.773-15.36-34.133-34.133-34.133
			h-51.2c-18.773,0-34.133,15.36-34.133,34.133v120.32C196.12,150.893,216.6,144.067,237.933,144.067"/>
		<path style="fill:#FFE100;" d="M237.933,365.933c-22.187,0-42.667-6.827-59.733-17.92v120.32c0,18.773,15.36,34.133,34.133,34.133
			h51.2c18.773,0,34.133-15.36,34.133-34.133v-120.32C280.6,359.107,260.12,365.933,237.933,365.933"/>
	</g>
	<path style="fill:#FDCC00;" d="M348.867,255c0,61.44-49.493,110.933-110.933,110.933S127,316.44,127,255
		s49.493-110.933,110.933-110.933S348.867,193.56,348.867,255"/>
	<g>
		<path style="fill:#FFA800;" d="M263.533,7.533h-17.067c18.773,0,34.133,15.36,34.133,34.133V152.6
			c5.973,2.56,11.947,5.12,17.067,8.533V41.667C297.667,22.893,282.307,7.533,263.533,7.533"/>
		<path style="fill:#FFA800;" d="M280.6,357.4v110.933c0,18.773-15.36,34.133-34.133,34.133h17.067
			c18.773,0,34.133-15.36,34.133-34.133v-120.32C292.547,351.427,286.573,354.84,280.6,357.4"/>
		<path style="fill:#FFA800;" d="M237.933,144.067c-2.56,0-5.973,0-8.533,0.853c57.173,4.267,102.4,52.053,102.4,110.08
			s-45.227,105.813-102.4,110.08c2.56,0,5.973,0.853,8.533,0.853c61.44,0,110.933-49.493,110.933-110.933
			S299.373,144.067,237.933,144.067"/>
	</g>
	<g>
		<path style="fill:#FFFFFF;" d="M212.333,7.533H229.4c-18.773,0-34.133,15.36-34.133,34.133V152.6
			c-5.973,2.56-11.947,5.12-17.067,8.533V41.667C178.2,22.893,193.56,7.533,212.333,7.533"/>
		<path style="fill:#FFFFFF;" d="M195.267,357.4v110.933c0,18.773,15.36,34.133,34.133,34.133h-17.067
			c-18.773,0-34.133-15.36-34.133-34.133v-120.32C184.173,351.427,189.293,354.84,195.267,357.4"/>
		<path style="fill:#FFFFFF;" d="M237.933,144.067c2.56,0,5.973,0,8.533,0.853c-57.173,4.267-102.4,52.053-102.4,110.08
			s45.227,105.813,102.4,110.08c-2.56,0-5.973,0.853-8.533,0.853C177.347,365.933,127,316.44,127,255
			S177.347,144.067,237.933,144.067"/>
	</g>
	<path style="fill:#FFE100;" d="M237.933,323.267c-37.547,0-68.267-30.72-68.267-68.267s30.72-68.267,68.267-68.267
		S306.2,217.453,306.2,255S275.48,323.267,237.933,323.267"/>
	<path d="M237.933,374.467c-65.707,0-119.467-53.76-119.467-119.467s53.76-119.467,119.467-119.467S357.4,189.293,357.4,255
		S304.493,374.467,237.933,374.467z M237.933,152.6c-56.32,0-102.4,46.08-102.4,102.4s46.08,102.4,102.4,102.4
		s102.4-46.08,102.4-102.4S295.107,152.6,237.933,152.6z"/>
	<path d="M237.933,331.8c-42.667,0-76.8-34.133-76.8-76.8s34.133-76.8,76.8-76.8s76.8,34.133,76.8,76.8S280.6,331.8,237.933,331.8z
		 M237.933,195.267c-33.28,0-59.733,26.453-59.733,59.733s26.453,59.733,59.733,59.733S297.667,288.28,297.667,255
		S271.213,195.267,237.933,195.267z"/>
	<path d="M237.933,212.333c-5.12,0-8.533-3.413-8.533-8.533v-17.067c0-5.12,3.413-8.533,8.533-8.533c5.12,0,8.533,3.413,8.533,8.533
		V203.8C246.467,208.92,243.053,212.333,237.933,212.333z"/>
	<path d="M237.933,331.8c-5.12,0-8.533-3.413-8.533-8.533V306.2c0-5.12,3.413-8.533,8.533-8.533c5.12,0,8.533,3.413,8.533,8.533
		v17.067C246.467,328.387,243.053,331.8,237.933,331.8z"/>
	<path d="M306.2,263.533h-17.067c-5.12,0-8.533-3.413-8.533-8.533s3.413-8.533,8.533-8.533H306.2c5.12,0,8.533,3.413,8.533,8.533
		S311.32,263.533,306.2,263.533z"/>
	<path d="M186.733,263.533h-17.067c-5.12,0-8.533-3.413-8.533-8.533s3.413-8.533,8.533-8.533h17.067c5.12,0,8.533,3.413,8.533,8.533
		S191.853,263.533,186.733,263.533z"/>
	<path d="M255,263.533h-17.067c-5.12,0-8.533-3.413-8.533-8.533v-25.6c0-5.12,3.413-8.533,8.533-8.533
		c5.12,0,8.533,3.413,8.533,8.533v17.067H255c5.12,0,8.533,3.413,8.533,8.533S260.12,263.533,255,263.533z"/>
	<path d="M237.933,169.667c-5.12,0-8.533-3.413-8.533-8.533v-17.067c0-5.12,3.413-8.533,8.533-8.533c5.12,0,8.533,3.413,8.533,8.533
		v17.067C246.467,166.253,243.053,169.667,237.933,169.667z"/>
	<path d="M237.933,374.467c-5.12,0-8.533-3.413-8.533-8.533v-17.067c0-5.12,3.413-8.533,8.533-8.533c5.12,0,8.533,3.413,8.533,8.533
		v17.067C246.467,371.053,243.053,374.467,237.933,374.467z"/>
	<path d="M348.867,263.533H331.8c-5.12,0-8.533-3.413-8.533-8.533s3.413-8.533,8.533-8.533h17.067c5.12,0,8.533,3.413,8.533,8.533
		S353.987,263.533,348.867,263.533z"/>
	<path d="M144.067,263.533H127c-5.12,0-8.533-3.413-8.533-8.533s3.413-8.533,8.533-8.533h17.067c5.12,0,8.533,3.413,8.533,8.533
		S149.187,263.533,144.067,263.533z"/>
	<path d="M304.493,196.973c-2.56,0-4.267-0.853-5.973-2.56c-3.413-3.413-3.413-8.533,0-11.947l11.947-11.947
		c3.413-3.413,8.533-3.413,11.947,0s3.413,8.533,0,11.947l-11.947,11.947C308.76,196.12,307.053,196.973,304.493,196.973z"/>
	<path d="M159.427,342.04c-2.56,0-4.267-0.853-5.973-2.56c-3.413-3.413-3.413-8.533,0-11.947l11.947-11.947
		c3.413-3.413,8.533-3.413,11.947,0s3.413,8.533,0,11.947L165.4,339.48C164.547,341.187,161.987,342.04,159.427,342.04z"/>
	<path d="M316.44,342.04c-2.56,0-4.267-0.853-5.973-2.56l-11.947-11.947c-3.413-3.413-3.413-8.533,0-11.947s8.533-3.413,11.947,0
		l11.947,11.947c3.413,3.413,3.413,8.533,0,11.947C320.707,341.187,319,342.04,316.44,342.04z"/>
	<path d="M172.227,196.973c-2.56,0-4.267-0.853-5.973-2.56l-11.947-11.947c-3.413-3.413-3.413-8.533,0-11.947
		c3.413-3.413,8.533-3.413,11.947,0l11.947,11.947c3.413,3.413,3.413,8.533,0,11.947
		C176.493,196.12,173.933,196.973,172.227,196.973z"/>
	<path d="M201.24,177.347c-3.413,0-6.827-1.707-7.68-5.12l-6.827-16.213c-1.707-4.267,0-9.387,4.267-11.093
		c4.267-1.707,9.387,0,11.093,4.267l6.827,15.36c1.707,4.267,0,9.387-4.267,11.093C203.8,177.347,202.093,177.347,201.24,177.347z"
		/>
	<path d="M282.307,365.08c-3.413,0-6.827-1.707-7.68-5.12L267.8,344.6c-1.707-4.267,0-9.387,4.267-11.093
		c4.267-1.707,9.387,0,11.093,4.267l6.827,15.36c1.707,4.267,0,9.387-4.267,11.093C284.013,365.08,283.16,365.08,282.307,365.08z"/>
	<path d="M324.12,226.84c-3.413,0-6.827-1.707-7.68-5.12c-1.707-4.267,0-9.387,4.267-11.093l15.36-6.827
		c4.267-1.707,9.387,0,11.093,4.267c1.707,4.267,0,9.387-4.267,11.093l-15.36,6.827C326.68,225.987,325.827,226.84,324.12,226.84z"
		/>
	<path d="M136.387,307.053c-3.413,0-6.827-1.707-7.68-5.12c-1.707-4.267,0-9.387,4.267-11.093l15.36-6.827
		c4.267-1.707,9.387,0,11.093,4.267c1.707,4.267,0,9.387-4.267,11.093L139.8,306.2C138.947,307.053,137.24,307.053,136.387,307.053z
		"/>
	<path d="M272.92,176.493c-0.853,0-2.56,0-3.413-0.853c-4.267-1.707-6.827-6.827-5.12-11.093l5.973-16.213
		c1.707-4.267,6.827-6.827,11.093-5.12c4.267,1.707,6.827,6.827,5.12,11.093L280.6,170.52
		C279.747,173.933,276.333,176.493,272.92,176.493z"/>
	<path d="M196.973,366.787c-0.853,0-1.707,0-3.413-0.853c-4.267-1.707-6.827-6.827-5.12-11.093l6.827-16.213
		c1.707-4.267,6.827-6.827,11.093-5.12c4.267,1.707,6.827,6.827,5.12,11.093l-5.973,16.213
		C203.8,364.227,200.387,366.787,196.973,366.787z"/>
	<path d="M341.187,304.493c-0.853,0-2.56,0-3.413-0.853l-15.36-5.973c-4.267-1.707-6.827-6.827-5.12-11.093
		c1.707-4.267,6.827-6.827,11.093-5.12l16.213,5.973c4.267,1.707,6.827,6.827,5.12,11.093
		C348.013,302.787,344.6,304.493,341.187,304.493z"/>
	<path d="M150.893,228.547c-0.853,0-1.707,0-3.413-0.853l-16.213-5.973c-4.267-1.707-6.827-6.827-5.12-11.093
		c1.707-4.267,6.827-6.827,11.093-5.12l17.067,6.827c4.267,1.707,6.827,6.827,5.12,11.093
		C157.72,226.84,154.307,228.547,150.893,228.547z"/>
	<path d="M178.2,170.52c-1.707,0-2.56,0-4.267-0.853c-2.56-1.707-4.267-5.12-4.267-7.68V41.667C169.667,17.773,188.44-1,212.333-1
		h51.2C287.427-1,306.2,17.773,306.2,41.667v120.32c0,3.413-1.707,5.973-4.267,7.68c-2.56,1.707-5.973,1.707-8.533,0
		c-33.28-21.333-76.8-21.333-110.08,0C181.613,169.667,179.907,170.52,178.2,170.52z M212.333,16.067
		c-13.653,0-25.6,11.093-25.6,25.6V147.48c31.573-15.36,70.827-15.36,102.4,0V41.667c0-14.507-11.093-25.6-25.6-25.6H212.333z"/>
	<path d="M263.533,511h-51.2c-23.893,0-42.667-18.773-42.667-42.667v-120.32c0-3.413,1.707-5.973,4.267-7.68
		c2.56-1.707,5.973-1.707,8.533,0c33.28,21.333,76.8,21.333,110.08,0c2.56-1.707,5.973-1.707,8.533,0
		c2.56,1.707,4.267,4.267,4.267,7.68v120.32C306.2,492.227,287.427,511,263.533,511z M186.733,362.52v105.813
		c0,14.507,11.093,25.6,25.6,25.6h51.2c14.507,0,25.6-11.093,25.6-25.6V362.52C257.56,377.88,219.16,377.88,186.733,362.52z"/>
	<path d="M374.467,280.6H347.16c-2.56,0-5.12-0.853-6.827-2.56s-2.56-4.267-1.707-6.827c1.707-6.827,1.707-11.093,1.707-16.213
		s0-10.24-1.707-15.36c0-2.56,0-5.12,1.707-6.827c1.707-1.707,4.267-2.56,6.827-2.56h27.307c9.387,0,17.067,7.68,17.067,17.067
		v17.067C391.533,272.92,383.853,280.6,374.467,280.6z M357.4,263.533h17.067v-17.067H357.4c0,2.56,0,5.973,0,8.533
		C357.4,257.56,357.4,260.973,357.4,263.533z"/>
</g>
<g>
</g>
<g>
</g>
<g>
</g>
<g>
</g>
<g>
</g>
<g>
</g>
<g>
</g>
<g>
</g>
<g>
</g>
<g>
</g>
<g>
</g>
<g>
</g>
<g>
</g>
<g>
</g>
<g>
</g>
</svg>
