<?xml version="1.0" encoding="iso-8859-1"?>
<!-- Generator: Adobe Illustrator 19.0.0, SVG Export Plug-In . SVG Version: 6.00 Build 0)  -->
<svg version="1.1" id="Capa_1" xmlns="http://www.w3.org/2000/svg" xmlns:xlink="http://www.w3.org/1999/xlink" x="0px" y="0px"
	 viewBox="0 0 511.957 511.957" style="enable-background:new 0 0 511.957 511.957;" xml:space="preserve">
<g>
	<g transform="translate(1 1)">
		<path style="fill:#FDD834;" d="M446.81,331.757c-18.688,98.816-72.619,170.325-136.363,170.667h-102.4
			c-80.128,0-145.067-110.763-145.067-247.467S127.92,7.491,208.048,7.491h101.973c63.915,0,118.101,71.595,136.789,170.667
			c0.443,2.386-0.15,4.848-1.632,6.77c-1.482,1.922-3.712,3.122-6.133,3.299l-83.371,5.632c-2.397,0.178-4.746-0.731-6.4-2.475
			c-1.311-1.255-2.18-2.902-2.475-4.693c-12.544-75.349-45.312-136.021-87.552-163.328c-7.719,5.019-14.896,10.824-21.419,17.323
			c-43.349,42.752-72.448,122.709-72.448,214.272s29.099,171.52,72.448,214.272c6.522,6.498,13.7,12.304,21.419,17.323
			c42.24-27.307,75.008-87.979,87.552-163.328c0.295-1.791,1.163-3.438,2.475-4.693c1.654-1.744,4.003-2.652,6.4-2.475l83.371,5.632
			c2.42,0.178,4.651,1.377,6.133,3.299C446.66,326.909,447.254,329.371,446.81,331.757z"/>
		<path style="fill:#FFEB3A;" d="M404.144,331.757c-18.688,98.816-72.619,170.325-136.363,170.667h-59.733
			c-80.128,0-145.067-110.763-145.067-247.467S127.92,7.491,208.048,7.491h59.307c63.915,0,118.101,71.595,136.789,170.667
			c0.443,2.386-0.15,4.848-1.632,6.77c-1.482,1.922-3.712,3.122-6.133,3.299l-47.104,3.157c-1.311-1.255-2.18-2.902-2.475-4.693
			c-12.544-75.349-45.312-136.021-87.552-163.328c-7.719,5.019-14.896,10.824-21.419,17.323
			c-6.445-6.515-13.568-12.322-21.248-17.323c-54.869,35.243-93.867,125.611-93.867,231.595s38.997,196.352,93.867,231.595
			c7.68-5.001,14.803-10.808,21.248-17.323c6.522,6.498,13.7,12.304,21.419,17.323c42.24-27.307,75.008-87.979,87.552-163.328
			c0.295-1.791,1.163-3.438,2.475-4.693l47.104,3.157c2.42,0.178,4.651,1.377,6.133,3.299
			C403.993,326.909,404.587,329.371,404.144,331.757z"/>
		<path style="fill:#FFB301;" d="M446.81,331.757c-18.688,98.816-72.619,170.325-136.363,170.667h-0.427
			c-4.316,0.005-8.625-0.337-12.885-1.024c-2.219-0.341-4.437-0.768-6.571-1.28c-0.636-0.131-1.263-0.302-1.877-0.512
			c-2.664-0.599-5.286-1.368-7.851-2.304c-3.157-1.195-6.315-2.475-9.387-3.925c-4.211-2.009-8.287-4.29-12.203-6.827
			c42.24-27.307,75.008-87.979,87.552-163.328c0.295-1.791,1.163-3.438,2.475-4.693c1.654-1.744,4.003-2.652,6.4-2.475l83.371,5.632
			c2.42,0.178,4.651,1.377,6.133,3.299C446.66,326.909,447.254,329.371,446.81,331.757z"/>
		<path style="fill:#FEC108;" d="M404.144,331.757c-16.64,87.808-61.013,154.027-115.456,167.851
			c-2.664-0.599-5.286-1.368-7.851-2.304c-3.157-1.195-6.315-2.475-9.387-3.925c-4.211-2.009-8.287-4.29-12.203-6.827
			c42.24-27.307,75.008-87.979,87.552-163.328c0.295-1.791,1.163-3.438,2.475-4.693l47.104,3.157
			c2.42,0.178,4.651,1.377,6.133,3.299C403.993,326.909,404.587,329.371,404.144,331.757z"/>
		<path style="fill:#FFB301;" d="M446.81,178.157c0.443,2.386-0.15,4.848-1.632,6.77c-1.482,1.922-3.712,3.122-6.133,3.299
			l-83.371,5.632c-2.397,0.178-4.746-0.731-6.4-2.475c-1.311-1.255-2.18-2.902-2.475-4.693
			c-12.544-75.349-45.312-136.021-87.552-163.328c3.916-2.537,7.992-4.817,12.203-6.827c3.072-1.451,6.229-2.731,9.387-3.925
			c2.601-0.937,5.25-1.734,7.936-2.389c0.597-0.171,1.195-0.256,1.792-0.427c2.133-0.512,4.352-0.939,6.571-1.28
			c4.261-0.683,8.57-1.026,12.885-1.024C373.936,7.491,428.122,79.085,446.81,178.157z"/>
		<path style="fill:#FEC108;" d="M404.144,178.157c0.443,2.386-0.15,4.848-1.632,6.77c-1.482,1.922-3.712,3.122-6.133,3.299
			l-47.104,3.157c-1.311-1.255-2.18-2.902-2.475-4.693c-12.544-75.349-45.312-136.021-87.552-163.328
			c3.916-2.537,7.992-4.817,12.203-6.827c3.072-1.451,6.229-2.731,9.387-3.925c2.601-0.937,5.25-1.734,7.936-2.389
			C343.13,24.131,387.589,90.349,404.144,178.157z"/>
		<path style="fill:#FFEB3A;" d="M122.714,254.957c0-85.111,26.453-164.548,69.009-207.309c3.327-3.341,3.316-8.747-0.026-12.075
			c-3.341-3.327-8.747-3.316-12.075,0.026c-46.319,46.541-73.975,128.546-73.975,219.358s27.657,172.817,73.975,219.358
			c2.152,2.161,5.294,3.011,8.242,2.227c2.948-0.783,5.254-3.08,6.05-6.025c0.796-2.945-0.04-6.09-2.192-8.252
			C149.168,419.506,122.714,340.069,122.714,254.957z"/>
	</g>
	<g>
		<path d="M180.623,36.599c-46.319,46.541-73.975,128.546-73.975,219.358s27.657,172.817,73.975,219.358
			c2.152,2.161,5.294,3.011,8.242,2.227c2.948-0.783,5.254-3.08,6.05-6.025c0.796-2.945-0.04-6.09-2.192-8.252
			c-42.556-42.76-69.009-122.197-69.009-207.309s26.453-164.548,69.009-207.309c3.327-3.341,3.316-8.747-0.026-12.075
			C189.356,33.247,183.95,33.258,180.623,36.599z"/>
		<path d="M260.29,34.833c38.076,27.52,67.473,84.591,79.121,154.274c1.312,8.214,8.382,14.268,16.7,14.302c0.375,0,0.759,0,1.152,0
			l83.345-5.589c4.864-0.333,9.353-2.73,12.335-6.586s4.173-8.804,3.272-13.595C436.179,71.637,378.136,0.444,311.652,0
			c-0.068,0-0.128,0-0.205,0h-102.4c-84.693-0.043-153.6,114.799-153.6,255.957s68.907,256,153.6,256h102.4
			c0.077,0,0.137-0.043,0.205-0.043c66.483-0.444,124.527-71.68,144.563-177.596c0.901-4.791-0.29-9.739-3.272-13.595
			c-2.982-3.856-7.472-6.253-12.335-6.586l-83.345-5.589c-8.789-0.729-16.62,5.526-17.852,14.259
			c-11.648,69.734-41.045,126.754-79.121,154.274c-51.243-36.651-85.376-124.331-85.376-221.124S209.048,71.475,260.29,34.833z
			 M439.448,180.753l-83.166,5.538c-11.793-70.605-41.353-129.493-80.213-160.973c3.618-1.718,7.347-3.191,11.162-4.412
			c0.521-0.162,1.033-0.299,1.553-0.452c3.195-0.956,6.447-1.711,9.737-2.261c0.563-0.102,1.126-0.222,1.707-0.299
			c3.673-0.549,7.38-0.835,11.093-0.853C369.474,17.203,420.939,82.953,439.448,180.753z M356.111,325.572l83.337,5.589
			c-18.509,97.809-69.973,163.55-128.196,163.729c-3.713-0.019-7.421-0.304-11.093-0.853c-0.563-0.077-1.126-0.196-1.707-0.299
			c-3.289-0.55-6.541-1.305-9.737-2.261c-0.521-0.154-1.033-0.29-1.553-0.452c-3.815-1.22-7.543-2.694-11.162-4.412
			C314.861,455.117,344.446,396.22,356.111,325.572z M157.848,255.957c0,106.846,38.4,200.533,97.724,238.729l0.239,0.154h-46.763
			c-75.281,0.051-136.533-107.136-136.533-238.882S133.767,17.024,209.048,17.024h46.831l-0.188,0.128h-0.077
			C196.248,55.424,157.848,149.111,157.848,255.957z"/>
	</g>
</g>
<g>
</g>
<g>
</g>
<g>
</g>
<g>
</g>
<g>
</g>
<g>
</g>
<g>
</g>
<g>
</g>
<g>
</g>
<g>
</g>
<g>
</g>
<g>
</g>
<g>
</g>
<g>
</g>
<g>
</g>
</svg>
