<?xml version="1.0" encoding="iso-8859-1"?>
<!-- Generator: Adobe Illustrator 19.0.0, SVG Export Plug-In . SVG Version: 6.00 Build 0)  -->
<svg version="1.1" id="Layer_1" xmlns="http://www.w3.org/2000/svg" xmlns:xlink="http://www.w3.org/1999/xlink" x="0px" y="0px"
	 viewBox="0 0 512.164 512.164" style="enable-background:new 0 0 512.164 512.164;" xml:space="preserve">
<g transform="translate(1)">
	<g>
		<path style="fill:#FFE100;" d="M178.282,34.297c-8.533,17.067-17.067,110.933,8.533,179.2
			c18.773,50.347,8.533,85.333,8.533,119.467s17.067,128,25.6,170.667h34.133V59.897C255.082,59.897,208.148,64.164,178.282,34.297"
			/>
		<path style="fill:#FFE100;" d="M331.882,34.297c8.533,17.067,17.067,110.933-8.533,179.2
			c-18.773,50.347-8.533,85.333-8.533,119.467s-17.067,128-25.6,170.667h-34.133V59.897
			C255.082,59.897,302.015,64.164,331.882,34.297"/>
	</g>
	<path style="fill:#FDCC00;" d="M323.348,8.697c-25.6,8.533-51.2,8.533-68.267,8.533s-42.667,0-68.267-8.533l-8.533,25.6
		c29.867,29.867,76.8,25.6,76.8,25.6s46.933,4.267,76.8-25.6L323.348,8.697z"/>
	<path style="fill:#FFA800;" d="M331.882,34.297l-8.533-25.6c-5.12,1.707-10.24,3.413-15.36,4.267l6.827,21.333l3.413,11.093
		c6.827,30.72,10.24,109.227-11.947,168.107c-18.773,50.347-8.533,85.333-8.533,119.467s-17.067,128-25.6,170.667h17.067
		c8.533-42.667,25.6-136.533,25.6-170.667s-10.24-69.12,8.533-119.467C348.948,145.23,340.415,51.364,331.882,34.297"/>
	<path style="fill:#FFFFFF;" d="M178.282,34.297l8.533-25.6c5.12,1.707,10.24,3.413,15.36,4.267l-6.827,21.333l-3.413,11.093
		c-6.827,30.72-10.24,109.227,11.947,168.107c18.773,50.347,8.533,85.333,8.533,119.467s17.067,128,25.6,170.667h-17.067
		c-8.533-42.667-25.6-136.533-25.6-170.667s10.24-69.12-8.533-119.467C161.215,145.23,169.748,51.364,178.282,34.297"/>
	<path d="M261.055,68.43L261.055,68.43c-3.413,0-5.12,0-5.973,0s-3.413,0-5.973,0c-14.507,0-51.2-2.56-76.8-28.16
		c-2.56-2.56-3.413-5.973-1.707-8.533l8.533-25.6c0.853-4.267,5.973-6.827,10.24-5.973c24.747,8.533,49.493,8.533,65.707,8.533
		s40.96,0,65.707-7.68c4.267-1.707,9.387,0.853,11.093,5.12l8.533,25.6c0.853,3.413,0,6.827-1.707,8.533
		C312.255,65.87,275.562,68.43,261.055,68.43z M255.082,51.364C255.082,51.364,255.935,51.364,255.082,51.364
		c0.853,0,2.56,0,5.973,0l0,0c11.947,0,40.107-1.707,60.587-19.627l-4.267-12.8c-23.893,6.827-46.933,6.827-62.293,6.827
		s-38.4,0-63.147-6.827l-3.413,12.8C214.975,54.777,253.375,51.364,255.082,51.364C254.228,51.364,255.082,51.364,255.082,51.364z"
		/>
	<path d="M255.082,512.164h-34.133c-4.267,0-7.68-2.56-8.533-6.827c-8.533-44.373-25.6-138.24-25.6-172.373
		c0-9.387,0.853-17.92,1.707-27.307c1.707-26.453,4.267-53.76-9.387-89.6c-26.453-69.12-18.773-165.547-8.533-186.027
		c0.853-1.707,3.413-3.413,5.973-4.267c3.413,0,5.973,0.853,7.68,2.56c26.453,26.453,69.12,23.04,69.973,23.04
		c2.56,0,5.12,0.853,6.827,2.56c1.707,0.853,2.56,3.413,2.56,5.973V503.63C263.615,507.897,260.202,512.164,255.082,512.164z
		 M227.775,495.097h18.773V68.43c-13.653,0-40.96-2.56-64-19.627c-5.12,29.867-9.387,104.107,11.947,161.28
		c14.507,39.253,12.8,69.973,10.24,96.427c0,9.387-0.853,17.92-0.853,26.453C203.882,364.537,219.242,449.017,227.775,495.097z"/>
	<path d="M289.215,512.164h-34.133c-5.12,0-8.533-3.413-8.533-8.533V59.897c0-2.56,0.853-4.267,2.56-5.973
		c1.707-1.707,4.267-2.56,6.827-2.56c0,0,2.56,0,5.12,0l0,0c12.8,0,43.52-2.56,64.853-23.04c1.707-1.707,4.267-2.56,7.68-2.56
		c2.56,0.853,5.12,2.56,5.973,4.267c10.24,20.48,17.92,116.053-8.533,186.027c-13.653,35.84-11.093,63.147-9.387,89.6
		c0.853,9.387,1.707,17.92,1.707,27.307c0,34.133-17.067,128-25.6,172.373C296.895,509.604,293.482,512.164,289.215,512.164z
		 M263.615,495.097h18.773c9.387-46.08,23.893-130.56,23.893-162.133c0-8.533-0.853-17.067-1.707-25.6
		c-1.707-26.453-4.267-57.173,10.24-96.427c21.333-57.173,17.92-132.267,11.947-161.28C304.575,65.87,277.268,68.43,263.615,68.43
		V495.097z"/>
</g>
<g>
</g>
<g>
</g>
<g>
</g>
<g>
</g>
<g>
</g>
<g>
</g>
<g>
</g>
<g>
</g>
<g>
</g>
<g>
</g>
<g>
</g>
<g>
</g>
<g>
</g>
<g>
</g>
<g>
</g>
</svg>
