<?xml version="1.0" encoding="iso-8859-1"?>
<!-- Generator: Adobe Illustrator 19.0.0, SVG Export Plug-In . SVG Version: 6.00 Build 0)  -->
<svg version="1.1" id="Layer_1" xmlns="http://www.w3.org/2000/svg" xmlns:xlink="http://www.w3.org/1999/xlink" x="0px" y="0px"
	 viewBox="0 0 512 512" style="enable-background:new 0 0 512 512;" xml:space="preserve">
<g>
	<g>
		<path style="fill:#C03A2B;" d="M210.037,53.16C204.379,23.04,181.551,0,149.701,0C117.86,0,95.032,23.04,89.373,53.16
			C83.097,86.546,71.294,333.25,70.65,361.931c-0.689,30.976,5.076,64.247,17.382,92.69c12.359,28.557,32.106,57.114,61.67,57.379
			c29.572-0.265,49.32-28.822,61.678-57.379c12.306-28.442,18.803-61.714,18.114-92.69C228.858,333.25,216.314,86.546,210.037,53.16
			"/>
		<path style="fill:#C03A2B;" d="M421.9,53.16C416.241,23.04,393.413,0,361.563,0c-31.841,0-54.669,23.04-60.328,53.16
			c-6.276,33.386-18.079,280.09-18.723,308.771c-0.689,30.976,5.076,64.247,17.382,92.69c12.359,28.557,32.106,57.114,61.669,57.379
			c29.572-0.265,49.32-28.822,61.678-57.379c12.306-28.442,18.803-61.714,18.114-92.69C440.72,333.25,428.176,86.546,421.9,53.16"/>
	</g>
	<g>
		<path style="fill:#9E281F;" d="M181.125,126.617c-1.298-17.69-2.657-35.372-4.087-53.045
			c-1.404-17.417-5.182-38.268-27.339-38.268c-22.148,0-25.927,20.851-27.33,38.268c-1.43,17.673-2.79,35.354-4.087,53.045
			c-1.871,25.459-2.278,50.935-3.893,76.412h35.31h35.31C183.403,177.552,182.997,152.075,181.125,126.617"/>
		<path style="fill:#9E281F;" d="M392.987,126.617c-1.298-17.69-2.657-35.372-4.087-53.045
			c-1.404-17.417-5.182-38.268-27.339-38.268c-22.148,0-25.927,20.851-27.33,38.268c-1.43,17.673-2.789,35.354-4.087,53.045
			c-1.871,25.459-2.277,50.935-3.893,76.412h35.31h35.31C395.265,177.552,394.859,152.075,392.987,126.617"/>
		<path style="fill:#9E281F;" d="M149.703,308.951l-18.706,18.706c-10.355,10.355-27.136,10.355-37.491,0l-21.089-18.706
			l21.089-18.706c10.355-10.355,27.136-10.355,37.491,0L149.703,308.951z"/>
		<path style="fill:#9E281F;" d="M226.993,308.951l-21.089,18.706c-10.355,10.355-27.145,10.355-37.491,0l-18.706-18.706
			l18.706-18.706c10.346-10.355,27.136-10.355,37.491,0L226.993,308.951z"/>
		<path style="fill:#9E281F;" d="M361.565,308.975l-18.706,18.706c-10.355,10.355-27.136,10.355-37.491,0l-21.089-18.732
			l21.089-18.679c10.355-10.355,27.136-10.355,37.491,0L361.565,308.975z"/>
		<path style="fill:#9E281F;" d="M438.855,308.951l-21.089,18.732c-10.355,10.355-27.145,10.355-37.491,0l-18.706-18.706
			l18.706-18.706c10.346-10.355,27.136-10.355,37.491,0L438.855,308.951z"/>
		<path style="fill:#9E281F;" d="M176.183,397.239c-21.813,0-35.31-45.815-35.31-88.276c0-4.882,3.946-8.828,8.828-8.828
			s8.828,3.946,8.828,8.828c0,42.037,12.721,68.599,18.158,70.691c4.873,0,8.572,3.911,8.572,8.792
			C185.258,393.328,181.064,397.239,176.183,397.239"/>
		<path style="fill:#9E281F;" d="M123.217,397.239c-4.882,0-8.828-3.946-8.828-8.828c0-4.882,3.946-8.828,8.828-8.828
			c4.935-2.022,17.655-28.575,17.655-70.621c0-4.882,3.946-8.828,8.828-8.828s8.828,3.946,8.828,8.828
			C158.528,351.424,145.03,397.239,123.217,397.239"/>
		<path style="fill:#9E281F;" d="M388.045,397.239c-21.813,0-35.31-45.815-35.31-88.276c0-4.882,3.946-8.828,8.828-8.828
			s8.828,3.946,8.828,8.828c0,42.037,12.721,68.599,18.158,70.691c4.873,0,8.572,3.911,8.572,8.792
			C397.12,393.328,392.927,397.239,388.045,397.239"/>
		<path style="fill:#9E281F;" d="M335.079,397.239c-4.882,0-8.828-3.946-8.828-8.828c0-4.882,3.946-8.828,8.828-8.828
			c4.935-2.022,17.655-28.575,17.655-70.621c0-4.882,3.946-8.828,8.828-8.828s8.828,3.946,8.828,8.828
			C370.39,351.424,356.892,397.239,335.079,397.239"/>
	</g>
</g>
<g>
</g>
<g>
</g>
<g>
</g>
<g>
</g>
<g>
</g>
<g>
</g>
<g>
</g>
<g>
</g>
<g>
</g>
<g>
</g>
<g>
</g>
<g>
</g>
<g>
</g>
<g>
</g>
<g>
</g>
</svg>
