<svg height="512" viewBox="0 0 51 58" width="512" xmlns="http://www.w3.org/2000/svg"><g id="092---Socks" fill="none" transform="translate(-1 -1)"><path id="Shape" d="m44.55 46.69c-4.87 2.9-7.27 4.6-15.17 10.6-3.89 3-9.82 1.83-12.08-2.14 10.31-51.83 10.11-51.29 10.21-51.29 2.49-.52 9.13-1.97 13.22-2.86.6257161-.07057642 1.191835.3751865 1.27 1 3 10.89 1.73 4.57 7.78 32.79.9914546 4.6780419-1.1132661 9.4669855-5.23 11.9z" fill="#df4d60"/><path id="Shape" d="m51 15.69c-.4148389.2231141-.7791169.5295162-1.07.9-.6.83.45 2.85-.62 3.9-.86.85-3.42.22-4.5.9s-1 3-2.32 3.55-3.11-1.07-4.36-.8c-1.81.41-2.78 4.26-5.38 1.66l-2.75 1.2-2-9c4.45-4.45 3.93-4 4.15-4l4.64.82c2.8713432-.7440776 5.544281-2.109563 7.83-4 2.1242042 1.1290854 4.3866273 1.9762335 6.73 2.52.92.25.76 1.66-.35 2.35z" fill="#ff5364"/><path id="Shape" d="m35 26.61c-.822589.1802244-1.6746675-.1363736-2.18-.81l-2.82 1.2-2-9c4.45-4.45 3.93-4 4.15-4 1.69 7.57 1.05 4.7 2.85 12.61z" fill="#df4d60"/><path id="Shape" d="m35.7 12.84c-.5297792.1404156-1.0738709-.1717681-1.22-.7-2.31-8.54-2.48-9.14-2.48-9.23l1.95-.42 2.49 9.13c.0661721.2600497.0250552.535783-.1141076.7652134-.1391627.2294305-.3646937.3933061-.6258924.4547866z" fill="#59474e"/><path id="Shape" d="m40.38 10.78c-.5299985.1474905-1.0795967-.1608207-1.23-.69-2.28-8.25-2.3-8.14-2.3-8.24l1.95-.42 2.27 8.12c.1474905.5299985-.1608207 1.0795967-.69 1.23z" fill="#59474e"/><path id="Shape" d="m29.55 46.69c-4.87 2.9-7.27 4.6-15.17 10.6-1.7917383 1.347237-4.047656 1.922396-6.26571903 1.5974808-2.21806303-.3249153-4.21423323-1.5229458-5.54428097-3.3274808-2.46931323-3.3956549-1.98667184-8.1057178 1.12-10.93l12-10.4c.2620293-.2366372.379854-.5939119.31-.94-4.79-22.38-3.35-15.78-6.59-27.52-.1643729-.58663192.16154557-1.19883011.74-1.39 5.55-1.22 12.68-2.74 15.58-3.38.6257161-.07057642 1.191835.3751865 1.27 1 3 10.89 1.73 4.57 7.78 32.79.9914546 4.6780419-1.1132661 9.4669855-5.23 11.9z" fill="#ff5364"/><g fill="#df4d60"><path id="Shape" d="m15.61 13c-.2559398.0704836-.5294024.0363072-.7601234-.0949974-.2307211-.1313047-.3997642-.3489609-.4698766-.6050026-1.12-4.17-2.31-8.24-2.31-8.3l1.93-.46 2.29 8.18c.0867712.2598593.0631298.5439388-.0654016.7858804-.1285315.2419416-.3506961.4205556-.6145984.4941196z"/><path id="Shape" d="m20.7 12.84c-.5297792.1404156-1.0738709-.1717681-1.22-.7-2.31-8.54-2.48-9.14-2.48-9.23l1.95-.42 2.49 9.13c.0661721.2600497.0250552.535783-.1141076.7652134-.1391627.2294305-.3646937.3933061-.6258924.4547866z"/><path id="Shape" d="m25.38 10.78c-.5299985.1474905-1.0795967-.1608207-1.23-.69-2.28-8.25-2.3-8.14-2.3-8.24l1.95-.42 2.27 8.12c.1474905.5299985-.1608207 1.0795967-.69 1.23z"/></g><path id="Shape" d="m6.66 20c1.88824271-1.4790822 3.5698612-3.2044228 5-5.13 6.2692217 1.6136369 12.9320369.1264014 17.92-4 2.1242042 1.1290854 4.3866273 1.9762335 6.73 2.52.92.2.76 1.64-.33 2.3-.4148389.2231141-.7791169.5295162-1.07.9-.6.83.45 2.85-.62 3.9-.89.87-3.39.21-4.5.9-.95.6-1 3-2.32 3.55s-3.11-1.07-4.36-.8-2.31 2.5-3.6 2.56c-1.45.06-2.5-2.09-3.61-2.23-1.29-.16-3.28 1.49-4.46 1.08-1.42-.5-1.31-2.78-2.21-3.28-.41757808-.2097704-.87351779-.3322617-1.34-.36-1.23-.14-1.98-1.37-1.23-1.91z" fill="#fb7b76"/></g></svg>