<?xml version="1.0" encoding="iso-8859-1"?>
<!-- Generator: Adobe Illustrator 19.0.0, SVG Export Plug-In . SVG Version: 6.00 Build 0)  -->
<svg version="1.1" id="Capa_1" xmlns="http://www.w3.org/2000/svg" xmlns:xlink="http://www.w3.org/1999/xlink" x="0px" y="0px"
	 viewBox="0 0 512.001 512.001" style="enable-background:new 0 0 512.001 512.001;" xml:space="preserve">
<g>
	<g transform="translate(1 1)">
		<path style="fill:#FFB301;" d="M502.467,344.6c0,0-76.8,68.267-247.467,68.267c-4.352,0-8.619-0.085-12.8-0.171
			C80.494,409.454,7.534,344.6,7.534,344.6l59.733-76.8c0,0,17.067-102.4,51.2-128c0,0,38.741-38.741,123.733-42.325
			c4.181-0.256,8.448-0.341,12.8-0.341c93.867,0,136.533,42.667,136.533,42.667c34.133,25.6,51.2,128,51.2,128L502.467,344.6z"/>
		<path style="fill:#FEC108;" d="M476.867,344.6c0,0-72.96,64.853-234.667,68.096C80.494,409.454,7.534,344.6,7.534,344.6
			l59.733-76.8c0,0,17.067-102.4,51.2-128c0,0,38.741-38.741,123.733-42.325c84.992,3.584,123.733,42.325,123.733,42.325
			c3.183,2.45,6.074,5.255,8.619,8.363c28.331,34.389,42.581,119.637,42.581,119.637l9.131,11.776L476.867,344.6z"/>
		<path style="fill:#FDD834;" d="M442.734,267.8c0,0-2.645,5.376-16.469,11.776l-9.131-11.776c0,0-14.251-85.248-42.581-119.637
			c5.979-2.089,11.681-4.897,16.981-8.363C425.667,165.4,442.734,267.8,442.734,267.8z"/>
		<path style="fill:#FFEB3A;" d="M391.192,290.755c0.171-2.901,0.341-5.973,0.341-9.216c0.008-11.305-1.66-22.549-4.949-33.365
			c-0.764-2.392-2.532-4.333-4.843-5.317c-2.311-0.983-4.935-0.911-7.189,0.197l-39.765,19.883
			c-6.283-9.685-17.042-15.531-28.587-15.531c-11.545,0-22.304,5.846-28.587,15.531l-39.765-19.883
			c-2.254-1.108-4.878-1.18-7.189-0.197c-2.311,0.983-4.079,2.924-4.843,5.317c-3.29,10.816-4.958,22.06-4.949,33.365
			c-0.028,6.697,0.572,13.383,1.792,19.968c-31.991-0.471-63.893-3.496-95.403-9.045l-34.304-9.045
			C71.022,275.395,67.267,267.8,67.267,267.8s17.067-102.4,51.2-128c0,0,34.133,25.6,136.533,25.6
			c63.147,0,100.352-9.728,119.552-17.237c28.331,34.389,42.581,119.637,42.581,119.637l9.131,11.776
			C415.008,284.547,403.25,288.295,391.192,290.755z"/>
		<path style="fill:#009688;" d="M340.334,281.539c0.005,6.051-1.585,11.996-4.608,17.237h-0.085
			c-0.234,0.485-0.52,0.943-0.853,1.365c-9.236,14.111-27.428,19.309-42.725,12.207c-15.297-7.102-23.066-24.352-18.247-40.515
			s20.767-26.341,37.455-23.906C327.959,250.363,340.334,264.674,340.334,281.539z"/>
		<g>
			<path style="fill:#00BCD4;" d="M272.067,281.539c-0.021,6.611,1.909,13.082,5.547,18.603l-39.765,19.883
				c-2.254,1.108-4.878,1.18-7.189,0.197c-2.311-0.983-4.079-2.924-4.843-5.317c-1.365-4.386-2.421-8.863-3.157-13.397
				c-1.22-6.585-1.82-13.271-1.792-19.968c-0.008-11.305,1.66-22.549,4.949-33.365c0.764-2.392,2.532-4.333,4.843-5.317
				c2.311-0.983,4.935-0.911,7.189,0.197l39.765,19.883C273.976,268.457,272.046,274.928,272.067,281.539z"/>
			<path style="fill:#00BCD4;" d="M391.534,281.539c0,3.243-0.171,6.315-0.341,9.216c-0.673,8.191-2.218,16.286-4.608,24.149
				c-0.764,2.392-2.532,4.333-4.843,5.317c-2.311,0.983-4.935,0.912-7.189-0.197l-39.765-19.883c0.333-0.423,0.62-0.88,0.853-1.365
				h0.085c3.023-5.241,4.613-11.187,4.608-17.237c0.021-6.611-1.909-13.082-5.547-18.603l39.765-19.883
				c2.254-1.108,4.878-1.18,7.189-0.197c2.311,0.983,4.079,2.924,4.843,5.317C389.874,258.99,391.542,270.234,391.534,281.539z"/>
		</g>
	</g>
	<path d="M510.205,340.363l-58.429-75.121c-2.758-15.496-19.979-104.975-53.671-130.925C392.88,129.338,348.225,89.6,256,89.6
		s-136.879,39.738-142.104,44.717c-33.692,25.95-50.913,115.429-53.671,130.925L1.796,340.363
		c-2.758,3.549-2.292,8.629,1.067,11.617C6.1,354.855,84.067,422.4,256,422.4s249.9-67.546,253.138-70.421
		C512.496,348.992,512.963,343.912,510.205,340.363z M256,157.867c-67.698,0-104.62-11.466-120.964-18.527
		c16.707-11.614,55.908-32.673,120.964-32.673c64.797,0,104.243,21.181,121.012,32.774C360.869,146.493,324.275,157.867,256,157.867
		z M256,405.334c-138.217,0-214.104-46.004-235.467-61.263l48.708-62.624c6.722,4.645,14.054,8.338,21.788,10.974
		c2.863,1.051,6.07,0.494,8.41-1.462c2.341-1.956,3.46-5.012,2.935-8.016c-0.525-3.005-2.614-5.5-5.479-6.547
		c-7.028-2.246-13.627-5.662-19.519-10.104C82.52,237.863,98.044,174,120.487,151.315c14.001,7.464,53.695,23.618,135.513,23.618
		s121.511-16.155,135.513-23.618c22.406,22.655,37.934,86.443,43.097,114.909c-10.068,7.142-21.515,12.103-33.61,14.568
		c-0.156-11.595-1.939-23.11-5.296-34.209c-1.515-4.726-5.003-8.565-9.562-10.525c-4.632-1.967-9.89-1.824-14.408,0.392
		l-33.662,16.829c-7.998-8.536-19.174-13.379-30.872-13.379s-22.873,4.843-30.872,13.379l-33.774-16.883
		c-4.494-2.189-9.72-2.31-14.31-0.331c-4.591,1.979-8.091,5.861-9.585,10.631c-3.524,11.631-5.318,23.718-5.325,35.871
		c0,3.671,0.226,7.365,0.559,11.056c-28.169-0.782-56.243-3.626-83.997-8.51c-4.628-0.888-9.099,2.143-9.988,6.771
		c-0.888,4.628,2.143,9.099,6.771,9.988c29.721,5.221,59.792,8.204,89.96,8.925c0.613,2.617,1.278,5.215,2.057,7.754
		c2.261,7.092,8.852,11.907,16.296,11.904c2.659-0.005,5.283-0.61,7.675-1.771l33.662-16.829
		c7.998,8.536,19.174,13.379,30.872,13.379c11.698,0,22.873-4.843,30.872-13.379l33.774,16.883c2.35,1.133,4.925,1.723,7.533,1.725
		c7.498,0.004,14.128-4.868,16.363-12.025c1.946-6.456,3.352-13.063,4.203-19.752c15.236-2.996,29.774-8.822,42.863-17.176
		l48.676,62.582C470.217,359.371,394.696,405.334,256,405.334z M230.4,282.567c-0.015-10.458,1.547-20.858,4.634-30.85
		l32.274,16.135c-3.699,9.46-3.699,19.966-0.001,29.427l-32.332,16.151C231.943,303.423,230.402,293.023,230.4,282.567z
		 M281.6,282.567c0-14.138,11.462-25.6,25.6-25.6c14.138,0,25.6,11.462,25.6,25.6c0,14.138-11.462,25.6-25.6,25.6
		C293.068,308.152,281.616,296.699,281.6,282.567z M347.094,267.855l32.332-16.151c3.032,10.007,4.574,20.406,4.575,30.863
		c0.015,10.458-1.547,20.858-4.634,30.85l-32.274-16.135C350.791,287.822,350.792,277.315,347.094,267.855L347.094,267.855z"/>
</g>
<g>
</g>
<g>
</g>
<g>
</g>
<g>
</g>
<g>
</g>
<g>
</g>
<g>
</g>
<g>
</g>
<g>
</g>
<g>
</g>
<g>
</g>
<g>
</g>
<g>
</g>
<g>
</g>
<g>
</g>
</svg>
