<svg height="512" viewBox="0 0 54 59" width="512" xmlns="http://www.w3.org/2000/svg"><g id="093---Coat" fill="none"><path id="Shape" d="m53.8 44.39c-1.37 2.44-4.39 3.9-8.62 2.75h-37.13c-3.85.82-6.61-.49-7.86-2.77-.12247087-.2189587-.15816453-.475953-.1-.72 2.14448099-8.4948801 3.8401619-17.096789 5.08-25.77 2.1-12.83 6.83-11.88 6.83-11.88h30s4.73-1 6.83 11.88c1.2319479 8.6705068 2.92434 17.2693271 5.07 25.76.0661833.2534482.0302769.5227465-.1.75z" fill="#a56a43"/><path id="Shape" d="m47.3 47.42c-5.54-.43 9.84-.54-39.25-.28-.67182648.1723504-1.35802546.2828117-2.05.33 0-.08 0-.16.07-.24 4-14.77 3.64-23.07 2.87-26.82-.12516889-.5969237.02887872-1.2183387.41837237-1.6876785.38949365-.4693399.97185993-.7353037 1.58162763-.7223215h32c.624295-.0004693 1.2129998.2906075 1.5916451.7869664s.5037933 1.141058.3383549 1.7430336c-3.07 10.7 2.53 26.75 2.43 26.89z" fill="#805333"/><path id="Shape" d="m46 50s-1 12.5-16.08 6.39c-.3-.11-.61-.24-.92-.38l-.94.33c-15.44 5.33-19.85-2.26-20.82-4.65-.35-.85-.06-1.24.81-4.54 5.53-21.15 1.95-30.15 1.95-30.15h34s-4.59 8.43 1.18 30.14c.25.95.52 1.86.82 2.86z" fill="#a56a43"/><path id="Shape" d="m30 18c0 40.69 0 38.08-.08 38.38-.3-.11-.61-.24-.92-.38l-.94.33c-.06-.23-.06 2.39-.06-38.33 0-.5522847.4477153-1 1-1s1 .4477153 1 1z" fill="#805333"/><path id="Shape" d="m33.24.59c-8.95-1.79-20.46.71-21.24 5.41 0 0-2.56 7.22 6 9 11 2.28 11 6 11 7 .48-3.09 1.8-6.09 5-7 7.77-2.22 7.75-8.35 8-9-.45-2.4-3.91-4.45-8.76-5.41z" fill="#f5efca"/><path id="Shape" d="m33.26 5.7c-2.4098347 2.39720554-4.512597 5.0844417-6.26 8-1.7538899-2.913792-3.8597186-5.60065479-6.27-8-.2839605-.28959404-.3648795-.72202234-.2048476-1.09469926s.5293155-.61178293.9348476-.60530074h11.08c.4037087-.00237145.7692453.23824082.9266917.60998938.1574465.37174856.0759163.80170676-.2066917 1.09001062z" fill="#5f5346"/><path id="Shape" d="m33 24h-4c-.5522847 0-1-.4477153-1-1s.4477153-1 1-1h4c.5522847 0 1 .4477153 1 1s-.4477153 1-1 1z" fill="#805333"/><circle id="Oval" cx="35" cy="23" fill="#f9eab0" r="2"/></g></svg>