<svg id="Layer_2" height="512" viewBox="0 0 128 128" width="512" xmlns="http://www.w3.org/2000/svg" data-name="Layer 2"><path d="m28.763 115.014h70.474v11.236h-70.474z" fill="#fb6572"/><path d="m100.667 28.309v-26.559h-17v34.587a19.667 19.667 0 0 1 -19.667 19.663 19.667 19.667 0 0 1 -19.667-19.663v-34.587h-17v26.559a33.589 33.589 0 0 1 -14.583 27.691 115.626 115.626 0 0 0 13.25 53.746l2.765 5.268h70.472l2.763-5.268a115.626 115.626 0 0 0 13.25-53.746 33.589 33.589 0 0 1 -14.583-27.691z" fill="#fee372"/><path d="m44.333 21.276 8.1 5.151a12 12 0 0 1 5.567 10.127v18.51a19.619 19.619 0 0 0 12 0v-18.51a12 12 0 0 1 5.563-10.127l8.1-5.151v-14.219l-13.23 8.409a12 12 0 0 1 -12.874 0l-13.226-8.409z" fill="#eabe32"/></svg>