<svg height="512pt" viewBox="-14 0 512 512" width="512pt" xmlns="http://www.w3.org/2000/svg"><path d="m401.695312 512h-320v-53.167969l-81.695312-32.6875 50.878906-339.214843 121.695313-86.929688h138.242187l121.695313 86.929688 50.878906 339.214843-81.695313 32.6875zm0 0" fill="#fce4ec"/><path d="m401.695312 464c-17.671874 0-32-14.328125-32-32v-192c0-8.835938 7.164063-16 16-16 8.835938 0 16 7.164062 16 16zm0 0" fill="#f8bbd0"/><path d="m81.695312 464v-224c0-8.835938 7.164063-16 16-16 8.835938 0 16 7.164062 16 16v192c0 17.671875-14.328124 32-32 32zm0 0" fill="#f8bbd0"/><path d="m369.695312 136.640625-38.878906 25.917969 26.078125 26.082031-115.199219 249.597656-115.199218-249.597656 26.078125-26.082031-38.878907-25.917969.480469-92.480469.800781-3.039062 49.28125-35.199219 77.4375 123.839844 77.441407-123.839844 48.800781 34.878906 1.757812 7.199219zm0 0" fill="#f48fb1"/><path d="m257.695312 104.160156v407.839844h-32v-407.839844l16 25.601563zm0 0" fill="#f06292"/></svg>